#N struct 7813-knob float value float px1 float px2 float py1 float
py2;
#N canvas 0 94 1280 930 12;
#N canvas 568 232 457 679 \$0-template 0;
#X obj 2 2 struct \$0-knob float value float px1 float px2 float py1
float py2;
#X obj 2 42 s \$0-event;
#X obj 2 142 drawnumber value 3 0 0 777777;
#X obj 2 167 drawnumber value 3 16 0 777777;
#X obj 2 192 drawnumber value 3 32 0 777777;
#X obj 2 217 drawnumber value 3 48 0 777777;
#X obj 2 242 drawnumber value 3 53 0 777777;
#X obj 2 67 filledpolygon 999 999 0 0 0 69 0 69 69 0 69 0 0;
#X obj 2 92 drawpolygon 909 69 34 34 35 34 35 35 34 35 34 34;
#X obj 2 117 drawpolygon 9 5 px1 py1 px2 py1 px2 py2 px1 py2 px1 py1
;
#X connect 0 0 1 0;
#X restore 32 7 pd \$0-template;
#X obj 842 443 unpack s p f f;
#X obj 827 543 pointer;
#X obj 827 568 get \$0-knob value;
#X obj 827 593 clip 100 400;
#X obj 827 618 set \$0-knob value;
#X obj 842 418 r \$0-event;
#X obj 957 618 r \$0-size;
#X obj 827 668 set \$0-knob px1;
#X obj 870 693 set \$0-knob px2;
#X obj 913 718 set \$0-knob py1;
#X obj 957 668 set \$0-knob py2;
#N canvas 0 94 1280 930 dial-coordinates 0;
#X obj 2 141 * 270;
#X obj 2 166 + 225;
#X obj 2 191 / 360;
#X obj 2 216 * 6.28319;
#X obj 2 241 sin;
#X obj 104 241 cos;
#X obj 104 266 * -1;
#X obj 2 2 inlet 0 to 1, f 6;
#X obj 53 2 inlet size, f 5;
#X obj 2 316 - 1;
#X obj 2 406 outlet px1, f 6;
#X obj 53 406 outlet px2, f 6;
#X obj 104 341 - 1;
#X obj 104 366 outlet py1, f 6;
#X obj 155 366 outlet py2, f 6;
#X obj 2 116 util/scale 100 400 0 1;
#X obj 104 316 util/scale -1 1 6 1;
#X obj 2 291 util/scale -1 1 6 1;
#X obj 146 66 -;
#X obj 53 41 t f f;
#X obj 53 91 + 2;
#N canvas 0 94 450 300 dial-size 0;
#X obj 2 2 inlet;
#X obj 2 27 / 12;
#X obj 39 27 + 0.5;
#X obj 39 52 i;
#X obj 83 77 mod 2;
#X obj 127 127 f;
#X obj 159 127 f;
#X obj 159 152 - 1;
#X obj 127 102 t b;
#X obj 159 102 t b;
#X obj 39 77 t f f;
#X obj 127 77 sel 1;
#X obj 127 177 max 5;
#X obj 127 202 outlet;
#X connect 0 0 1 0;
#X connect 1 0 2 0;
#X connect 2 0 3 0;
#X connect 3 0 10 0;
#X connect 4 0 11 0;
#X connect 5 0 12 0;
#X connect 6 0 7 0;
#X connect 7 0 12 0;
#X connect 8 0 5 0;
#X connect 9 0 6 0;
#X connect 10 0 4 0;
#X connect 10 1 5 1;
#X connect 10 1 6 1;
#X connect 11 0 8 0;
#X connect 11 1 9 0;
#X connect 12 0 13 0;
#X restore 53 66 pd dial-size;
#X connect 0 0 1 0;
#X connect 1 0 2 0;
#X connect 2 0 3 0;
#X connect 3 0 4 0;
#X connect 3 0 5 0;
#X connect 4 0 17 0;
#X connect 5 0 6 0;
#X connect 6 0 16 0;
#X connect 7 0 15 0;
#X connect 8 0 19 0;
#X connect 9 0 10 0;
#X connect 12 0 13 0;
#X connect 15 0 0 0;
#X connect 16 0 12 0;
#X connect 16 0 14 0;
#X connect 17 0 9 0;
#X connect 17 0 11 0;
#X connect 18 0 17 4;
#X connect 18 0 16 4;
#X connect 19 0 18 0;
#X connect 19 1 21 0;
#X connect 20 0 18 1;
#X connect 20 0 17 3;
#X connect 20 0 16 3;
#X connect 21 0 20 0;
#X restore 827 643 pd dial-coordinates;
#X msg 566 594 clear;
#X obj 566 619 s pd-\$0-graphics;
#X msg 543 668 traverse \$1 \, bang;
#X obj 543 643 symbol pd-\$0-graphics;
#X obj 520 569 t b b b;
#X obj 543 693 pointer;
#X obj 520 544 r \$0-update;
#N canvas 0 94 1280 930 dial-coordinates 0;
#X obj 2 141 * 270;
#X obj 2 166 + 225;
#X obj 2 191 / 360;
#X obj 2 216 * 6.28319;
#X obj 2 241 sin;
#X obj 104 241 cos;
#X obj 104 266 * -1;
#X obj 2 2 inlet 0 to 1, f 6;
#X obj 53 2 inlet size, f 5;
#X obj 2 316 - 1;
#X obj 2 406 outlet px1, f 6;
#X obj 53 406 outlet px2, f 6;
#X obj 104 341 - 1;
#X obj 104 366 outlet py1, f 6;
#X obj 155 366 outlet py2, f 6;
#X obj 2 116 util/scale 100 400 0 1;
#X obj 104 316 util/scale -1 1 6 1;
#X obj 2 291 util/scale -1 1 6 1;
#X obj 146 66 -;
#X obj 53 41 t f f;
#X obj 53 91 + 2;
#N canvas 0 94 450 300 dial-size 0;
#X obj 2 2 inlet;
#X obj 2 27 / 12;
#X obj 39 27 + 0.5;
#X obj 39 52 i;
#X obj 83 77 mod 2;
#X obj 127 127 f;
#X obj 159 127 f;
#X obj 159 152 - 1;
#X obj 127 102 t b;
#X obj 159 102 t b;
#X obj 39 77 t f f;
#X obj 127 77 sel 1;
#X obj 127 177 max 5;
#X obj 127 202 outlet;
#X connect 0 0 1 0;
#X connect 1 0 2 0;
#X connect 2 0 3 0;
#X connect 3 0 10 0;
#X connect 4 0 11 0;
#X connect 5 0 12 0;
#X connect 6 0 7 0;
#X connect 7 0 12 0;
#X connect 8 0 5 0;
#X connect 9 0 6 0;
#X connect 10 0 4 0;
#X connect 10 1 5 1;
#X connect 10 1 6 1;
#X connect 11 0 8 0;
#X connect 11 1 9 0;
#X connect 12 0 13 0;
#X restore 53 66 pd dial-size;
#X connect 0 0 1 0;
#X connect 1 0 2 0;
#X connect 2 0 3 0;
#X connect 3 0 4 0;
#X connect 3 0 5 0;
#X connect 4 0 17 0;
#X connect 5 0 6 0;
#X connect 6 0 16 0;
#X connect 7 0 15 0;
#X connect 8 0 19 0;
#X connect 9 0 10 0;
#X connect 12 0 13 0;
#X connect 15 0 0 0;
#X connect 16 0 12 0;
#X connect 16 0 14 0;
#X connect 17 0 9 0;
#X connect 17 0 11 0;
#X connect 18 0 17 4;
#X connect 18 0 16 4;
#X connect 19 0 18 0;
#X connect 19 1 21 0;
#X connect 20 0 18 1;
#X connect 20 0 17 3;
#X connect 20 0 16 3;
#X connect 21 0 20 0;
#X restore 326 668 pd dial-coordinates;
#X obj 456 643 r \$0-size;
#X obj 294 643 t f f;
#X obj 611 243 r \$0-size;
#N canvas 717 666 450 300 circle-stuff 0;
#X obj 2 2 inlet size, f 5;
#X obj 32 42 / 2;
#X obj 62 42 + 1;
#X obj 2 67 outlet max range, f 3;
#X obj 32 92 outlet n1, f 3;
#X obj 62 92 outlet n2, f 3;
#X obj 32 67 i;
#X obj 62 67 i;
#X obj 2 42 - 1;
#X connect 0 0 8 0;
#X connect 1 0 2 0;
#X connect 1 0 6 0;
#X connect 2 0 7 0;
#X connect 6 0 4 0;
#X connect 7 0 5 0;
#X connect 8 0 3 0;
#X connect 8 0 1 0;
#X restore 599 268 pd circle-stuff;
#X obj 599 293 s \$0-maxrange;
#X obj 293 268 r \$0-size;
#X obj 293 243 namecanvas \$0-knob;
#X obj 293 348 s \$0-knob;
#X obj 452 373 s pd-\$0-graphics;
#X obj 452 293 pack f f;
#X msg 293 293 donecanvasdialog 1 1 2 0 0 1 1 \$1 \$1 32 32 \, dirty
0, f 20;
#X obj 452 243 r \$0-maxrange;
#X obj 505 268 r \$0-size;
#X msg 452 318 donecanvasdialog 1 1 2 0 0 \$1 \$1 \$2 \$2 2 2 \, dirty
0, f 20;
#N canvas 253 241 960 680 dynamic-graphics 0;
#X obj 46 2 inlet n1, f 5;
#X obj 90 2 inlet n2, f 5;
#X obj 25 117 t b b b;
#X msg 25 192 connect 0 0 1 0;
#X obj 265 28 outlet;
#X obj 265 2 r \$0-msg;
#X obj 25 217 s \$0-msg;
#X obj 2 2 inlet size, f 5;
#X obj 2 67 t b b b;
#X msg 60 67 clear;
#X obj 60 92 s \$0-msg;
#X obj 46 42 t b f;
#X obj 90 42 t b f;
#X obj 2 416 s \$0-msg;
#X obj 2 242 t b b b;
#X obj 2 42 t b f;
#N canvas 0 94 1280 930 dynamic-scalars 0;
#X obj 2 52 / 16;
#X obj 2 127 until;
#X obj 2 102 i;
#X obj 2 152 0, f 2;
#X obj 25 152 + 1;
#X obj 2 202 * 16;
#X obj 39 202 * 25;
#X obj 2 177 t f f;
#X obj 2 77 t f b;
#X obj 34 102 0, f 1;
#X obj 65 27 i;
#X obj 65 52 ==;
#X obj 65 77 sel 0;
#X obj 65 127 f;
#X obj 65 102 t b;
#X obj 2 2 inlet;
#X obj 65 152 t f f;
#X obj 2 400 outlet;
#X obj 102 177 / 16;
#X obj 102 202 i;
#X obj 65 177 - 16;
#X msg 209 227 adddollar 2;
#X msg 226 202 add2 obj 2;
#X msg 141 202 add2 0;
#X msg 255 177 set;
#N canvas 0 94 1280 930 horizontal-padding 0;
#X obj 20 27 / 7;
#X obj 20 52 - 3;
#X obj 2 77 i;
#X obj 2 127 until;
#X obj 2 152 f;
#X obj 32 152 + 1;
#X obj 32 177 mod;
#X obj 46 127 sel 0;
#X obj 2 102 t b f b;
#X msg 32 202 add2 55;
#X msg 32 227 55 55 55 55 55 55;
#X msg 95 202 set;
#X obj 32 252 list tosymbol;
#X obj 20 2 inlet;
#X obj 32 277 outlet;
#X obj 50 27 >= 0;
#X obj 50 52 sel 1;
#X obj 50 77 t b;
#X connect 0 0 1 0;
#X connect 1 0 2 1;
#X connect 1 0 15 0;
#X connect 2 0 8 0;
#X connect 3 0 4 0;
#X connect 4 0 5 0;
#X connect 5 0 6 0;
#X connect 6 0 4 1;
#X connect 6 0 9 0;
#X connect 6 0 7 0;
#X connect 7 0 3 1;
#X connect 7 0 10 0;
#X connect 8 0 3 0;
#X connect 8 1 6 1;
#X connect 8 2 11 0;
#X connect 9 0 10 0;
#X connect 10 0 12 0;
#X connect 11 0 10 0;
#X connect 12 0 14 0;
#X connect 13 0 0 0;
#X connect 15 0 16 0;
#X connect 16 0 17 0;
#X connect 17 0 2 0;
#X restore 109 127 pd horizontal-padding;
#X msg 109 152 add2 \$1;
#X obj 109 102 t f b;
#X obj 2 27 f;
#X obj 2 350 pack f f f;
#X msg 192 252 add2 drawnumber value;
#X msg 2 375 obj 2 \$2 drawnumber value \$3 \$1 0 777777;
#X msg 175 277 adddollar 3;
#X obj 141 177 t b b b b b b b;
#X msg 158 302 adddollar 1;
#X obj 99 250 / 7;
#X obj 99 275 i;
#X obj 69 275 -;
#X obj 69 300 * 7;
#X obj 69 325 / 2;
#X obj 39 227 + 142;
#X connect 0 0 8 0;
#X connect 0 0 10 0;
#X connect 0 0 11 1;
#X connect 1 0 3 0;
#X connect 2 0 1 0;
#X connect 3 0 4 0;
#X connect 3 0 7 0;
#X connect 4 0 3 1;
#X connect 5 0 29 0;
#X connect 6 0 40 0;
#X connect 7 0 5 0;
#X connect 7 1 6 0;
#X connect 8 0 2 0;
#X connect 8 1 9 0;
#X connect 9 0 3 1;
#X connect 10 0 11 0;
#X connect 11 0 12 0;
#X connect 12 0 14 0;
#X connect 13 0 16 0;
#X connect 14 0 13 0;
#X connect 15 0 28 0;
#X connect 16 0 20 0;
#X connect 16 1 18 0;
#X connect 18 0 19 0;
#X connect 19 0 6 0;
#X connect 20 0 29 0;
#X connect 21 0 31 0;
#X connect 22 0 31 0;
#X connect 23 0 31 0;
#X connect 24 0 31 0;
#X connect 25 0 26 0;
#X connect 26 0 31 0;
#X connect 27 0 25 0;
#X connect 27 1 33 0;
#X connect 28 0 0 0;
#X connect 28 0 13 1;
#X connect 28 0 27 0;
#X connect 28 0 35 0;
#X connect 29 0 31 0;
#X connect 30 0 31 0;
#X connect 31 0 17 0;
#X connect 32 0 31 0;
#X connect 33 0 23 0;
#X connect 33 1 34 0;
#X connect 33 2 32 0;
#X connect 33 3 30 0;
#X connect 33 4 21 0;
#X connect 33 5 22 0;
#X connect 33 6 24 0;
#X connect 34 0 31 0;
#X connect 35 0 36 0;
#X connect 35 0 37 0;
#X connect 36 0 37 1;
#X connect 37 0 38 0;
#X connect 38 0 39 0;
#X connect 39 0 29 2;
#X connect 40 0 29 1;
#X restore 60 242 pd dynamic-scalars;
#N canvas 0 94 450 300 dial-size 0;
#X obj 2 2 inlet;
#X obj 2 27 / 12;
#X obj 39 27 + 0.5;
#X obj 39 52 i;
#X obj 83 77 mod 2;
#X obj 127 127 f;
#X obj 159 127 f;
#X obj 159 152 - 1;
#X obj 127 102 t b;
#X obj 159 102 t b;
#X obj 39 77 t f f;
#X obj 127 77 sel 1;
#X obj 127 177 max 5;
#X obj 127 202 outlet;
#X connect 0 0 1 0;
#X connect 1 0 2 0;
#X connect 2 0 3 0;
#X connect 3 0 10 0;
#X connect 4 0 11 0;
#X connect 5 0 12 0;
#X connect 6 0 7 0;
#X connect 7 0 12 0;
#X connect 8 0 5 0;
#X connect 9 0 6 0;
#X connect 10 0 4 0;
#X connect 10 1 5 1;
#X connect 10 1 6 1;
#X connect 11 0 8 0;
#X connect 11 1 9 0;
#X connect 12 0 13 0;
#X restore 95 317 pd dial-size;
#X obj 134 42 t b f;
#X obj 177 42 t b f;
#X obj 221 42 t b f;
#X obj 134 2 inlet drop, f 5;
#X obj 177 2 inlet back, f 5;
#X obj 221 2 inlet front, f 5;
#X obj 25 267 pack f f;
#X obj 2 366 pack f f f f;
#X obj 95 342 pack f f;
#X msg 48 167 obj 2 42 s \\\$0-event;
#X msg 25 292 obj 2 67 filledpolygon \$2 \$2 0 0 0 \$1 0 \$1 \$1 0
\$1 0 0;
#X msg 2 391 obj 2 92 drawpolygon \$4 \$1 \$2 \$2 \$3 \$2 \$3 \$3 \$2
\$3 \$2 \$2;
#X msg 95 366 obj 2 117 drawpolygon \$2 \$1 px1 py1 px2 py1 px2 py2
px1 py2 px1 py1, f 68;
#X obj 2 317 t b b;
#X msg 71 142 obj 2 2 struct \\\$0-knob float value float px1 float
px2 float py1 float py2, f 75;
#X connect 0 0 11 0;
#X connect 1 0 12 0;
#X connect 2 0 3 0;
#X connect 2 1 27 0;
#X connect 2 2 32 0;
#X connect 3 0 6 0;
#X connect 5 0 4 0;
#X connect 7 0 15 0;
#X connect 8 0 14 0;
#X connect 8 1 2 0;
#X connect 8 2 9 0;
#X connect 9 0 10 0;
#X connect 11 0 8 0;
#X connect 11 1 25 1;
#X connect 12 0 8 0;
#X connect 12 1 25 2;
#X connect 14 0 31 0;
#X connect 14 1 24 0;
#X connect 14 2 16 0;
#X connect 15 0 8 0;
#X connect 15 1 16 0;
#X connect 15 1 17 0;
#X connect 15 1 24 0;
#X connect 15 1 25 0;
#X connect 16 0 13 0;
#X connect 17 0 26 0;
#X connect 18 0 8 0;
#X connect 18 1 24 1;
#X connect 19 0 8 0;
#X connect 19 1 25 3;
#X connect 20 0 8 0;
#X connect 20 1 26 1;
#X connect 21 0 18 0;
#X connect 22 0 19 0;
#X connect 23 0 20 0;
#X connect 24 0 28 0;
#X connect 25 0 29 0;
#X connect 26 0 30 0;
#X connect 27 0 6 0;
#X connect 28 0 13 0;
#X connect 29 0 13 0;
#X connect 30 0 13 0;
#X connect 31 0 26 0;
#X connect 31 1 25 0;
#X connect 32 0 6 0;
#X restore 611 318 pd dynamic-graphics;
#X f 28;
#X obj 611 342 s pd-\$0-template;
#X obj 293 25 loadbang;
#X obj 325 100 pdcontrol;
#X msg 325 75 args;
#X obj 293 50 t b b;
#X obj 325 125 list split 2, f 16;
#X obj 325 175 s \$0-arg;
#X obj 379 200 list;
#X obj 440 25 r \$0-arg;
#X obj 453 125 s \$0-size;
#X obj 536 125 s \$0-back;
#X obj 577 175 s \$0-front;
#X obj 325 150 list trim;
#X obj 440 50 t b a;
#X obj 619 125 s \$0-min;
#X obj 660 150 s \$0-max;
#X obj 453 100 35;
#X obj 494 100 999;
#X obj 536 100 0;
#X obj 577 100 999;
#X obj 619 100 0;
#X obj 660 100 1;
#X obj 434 150 t b;
#X obj 434 175 s \$0-arg;
#X obj 293 200 s \$0-update;
#X obj 494 150 s \$0-drop;
#X text 292 4 Accept arguments on creation;
#X text 292 223 Resize GOPs and dynamically create the graphics.;
#X text 291 399 Initialize the struct;
#X text 698 397 Accept events from the struct and move the dial.;
#N canvas 0 94 1280 930 \$0-graphics 0;
#X scalar 7813-knob 190 11.2521 12.2521 17.3358 18.3358 \;;
#X coords 0 0 68 68 69 69 2 2 2;
#X restore 32 32 pd \$0-graphics;
#X obj 707 293 r \$0-drop;
#X obj 739 268 r \$0-back;
#X obj 771 243 r \$0-front;
#X obj 940 768 r \$0-min;
#X obj 978 743 r \$0-max;
#X obj 827 818 outlet;
#X obj 725 100 r \$0-min;
#X obj 774 125 r \$0-max;
#X obj 312 568 r \$0-default;
#X obj 720 200 s \$0-default;
#X obj 699 643 set \$0-knob value;
#N canvas 0 94 450 300 double-click 0;
#X obj 2 117 f 0;
#X obj 32 117 + 1;
#X obj 62 117 mod 2;
#X obj 62 142 sel 0;
#X obj 20 67 del 200;
#X msg 20 92 0, f 1;
#X obj 2 42 bang;
#X obj 2 2 inlet bang, f 5;
#X obj 62 192 outlet;
#X msg 62 167 bang;
#X connect 0 0 1 0;
#X connect 1 0 0 1;
#X connect 1 0 2 0;
#X connect 2 0 3 0;
#X connect 3 0 9 0;
#X connect 4 0 5 0;
#X connect 5 0 0 1;
#X connect 6 0 0 0;
#X connect 6 0 4 0;
#X connect 7 0 6 0;
#X connect 9 0 8 0;
#X restore 699 543 pd double-click;
#X obj 717 568 r \$0-default;
#X obj 294 593 f;
#X obj 842 468 sel click change;
#X obj 873 518 pointer;
#X obj 896 493 t b;
#X obj 842 493 t b;
#X obj 725 125 t b f;
#X obj 774 150 t b f;
#X obj 699 618 i;
#X obj 294 618 i;
#X obj 331 493 r \$0-min;
#X obj 368 468 r \$0-max;
#X obj 294 418 inlet;
#X obj 294 443 t b f;
#X obj 338 443 s \$0-update;
#X obj 294 518 clip, f 11;
#X obj 804 293 r \$0-label;
#X obj 699 593 f;
#X obj 294 693 pack f f f f f, f 19;
#X obj 471 75 route size drop back front min max default;
#X obj 294 718 append \$0-knob value px1 px2 py1 py2;
#X obj 720 175 util/scale 0 1 100 400;
#X obj 294 543 util/scale 0 1 100 400;
#X obj 827 793 util/scale 100 400 0 1;
#X connect 1 0 81 0;
#X connect 1 1 82 0;
#X connect 2 0 3 0;
#X connect 3 0 4 0;
#X connect 4 0 5 0;
#X connect 4 0 12 0;
#X connect 4 0 102 0;
#X connect 6 0 1 0;
#X connect 7 0 12 1;
#X connect 12 0 8 0;
#X connect 12 1 9 0;
#X connect 12 2 10 0;
#X connect 12 3 11 0;
#X connect 13 0 14 0;
#X connect 15 0 18 0;
#X connect 16 0 15 0;
#X connect 17 0 80 0;
#X connect 17 1 16 0;
#X connect 17 2 13 0;
#X connect 18 0 99 5;
#X connect 19 0 17 0;
#X connect 20 0 97 1;
#X connect 20 1 97 2;
#X connect 20 2 97 3;
#X connect 20 3 97 4;
#X connect 21 0 20 1;
#X connect 22 0 97 0;
#X connect 22 1 20 0;
#X connect 23 0 24 0;
#X connect 23 0 35 0;
#X connect 24 0 25 0;
#X connect 24 1 35 1;
#X connect 24 2 35 2;
#X connect 26 0 31 0;
#X connect 30 0 34 0;
#X connect 31 0 28 0;
#X connect 32 0 30 0;
#X connect 33 0 30 1;
#X connect 34 0 29 0;
#X connect 35 0 36 0;
#X connect 37 0 40 0;
#X connect 38 0 41 0;
#X connect 39 0 38 0;
#X connect 40 0 60 0;
#X connect 40 1 39 0;
#X connect 41 0 48 0;
#X connect 41 1 43 0;
#X connect 41 2 58 0;
#X connect 43 0 41 0;
#X connect 44 0 49 0;
#X connect 48 0 42 0;
#X connect 49 0 52 0;
#X connect 49 0 53 0;
#X connect 49 0 54 0;
#X connect 49 0 55 0;
#X connect 49 0 56 0;
#X connect 49 0 57 0;
#X connect 49 0 100 0;
#X connect 49 1 98 0;
#X connect 52 0 45 0;
#X connect 53 0 61 0;
#X connect 54 0 46 0;
#X connect 55 0 47 0;
#X connect 56 0 50 0;
#X connect 57 0 51 0;
#X connect 58 0 59 0;
#X connect 67 0 35 3;
#X connect 68 0 35 4;
#X connect 69 0 35 5;
#X connect 70 0 102 3;
#X connect 71 0 102 4;
#X connect 73 0 85 0;
#X connect 74 0 86 0;
#X connect 75 0 80 1;
#X connect 78 0 96 0;
#X connect 79 0 96 1;
#X connect 80 0 88 0;
#X connect 80 0 102 0;
#X connect 81 0 84 0;
#X connect 81 1 83 0;
#X connect 82 0 2 1;
#X connect 82 0 5 1;
#X connect 82 0 11 1;
#X connect 82 0 8 1;
#X connect 82 0 9 1;
#X connect 82 0 10 1;
#X connect 82 0 77 1;
#X connect 83 0 2 0;
#X connect 84 0 78 0;
#X connect 85 0 100 0;
#X connect 85 1 100 1;
#X connect 86 0 100 0;
#X connect 86 1 100 2;
#X connect 87 0 77 0;
#X connect 88 0 22 0;
#X connect 89 0 94 1;
#X connect 89 0 101 1;
#X connect 90 0 94 2;
#X connect 90 0 101 2;
#X connect 91 0 92 0;
#X connect 92 0 93 0;
#X connect 92 1 94 0;
#X connect 94 0 101 0;
#X connect 96 0 4 0;
#X connect 96 0 87 0;
#X connect 97 0 99 0;
#X connect 98 0 52 1;
#X connect 98 1 53 1;
#X connect 98 2 54 1;
#X connect 98 3 55 1;
#X connect 98 4 56 1;
#X connect 98 5 57 1;
#X connect 98 6 100 0;
#X connect 100 0 76 0;
#X connect 101 0 80 0;
#X connect 102 0 72 0;
#X coords 0 0 1 1 69 69 2 32 32;
