#N struct 1884-knob float value float dx float dy float backdrop float
back float front float valuer float v;
#N canvas 0 94 1280 930 12;
#N canvas 0 94 1280 930 \$0-graphics 0;
#X scalar 1884-knob 100 -0.707109 0.707105 0 0 0 0 0 \;;
#X coords -1 -1 1 1 35 35 2 2 2;
#X restore 32 32 pd \$0-graphics;
#X obj 165 253 cnv 15 320 150 empty empty Resize_GOP_and_the_graphics_subpatch
2 9 0 14 -203904 -16662 0;
#X obj 169 298 r \$0-size;
#X obj 169 273 namecanvas \$0-knob;
#X obj 169 379 s \$0-knob;
#X obj 328 273 r \$0-size;
#X obj 328 353 s pd-\$0-graphics;
#X msg 328 298 donecanvasdialog 1 1 2 -1 -1 1 1 \$1 \$1 2 2 \, dirty
0, f 20;
#X msg 169 324 donecanvasdialog 1 1 2 -1 -1 1 1 \$1 \$1 32 32 \, dirty
0, f 20;
#X obj 165 404 cnv 15 500 330 empty empty Get_struct_pointer_and_manipulate_scalar_values
2 9 0 14 -204800 -13330 0;
#N canvas 195 161 956 437 \$0-template 0;
#X obj 732 2 outlet;
#X obj 2 2 struct \$0-knob float value float dx float dy float backdrop
float back float front float valuer float v, f 103;
#X connect 1 0 0 0;
#X restore 314 426 pd \$0-template;
#X obj 299 551 get \$0-knob value;
#X obj 345 501 pointer;
#X obj 299 601 t f f;
#X obj 299 701 set \$0-knob dx;
#X obj 429 701 set \$0-knob dy;
#X obj 331 626 set \$0-knob value;
#N canvas 730 541 239 225 dial-coordinates 0;
#X obj 2 2 inlet;
#X obj 2 27 * 270;
#X obj 2 52 + 225;
#X obj 2 77 / 360;
#X obj 2 102 * 6.28319;
#X obj 2 127 sin;
#X obj 43 127 cos;
#X obj 43 152 * -1;
#X obj 2 177 outlet;
#X obj 43 202 outlet;
#X text 51 8 This subpatch calculates the two end coordinates of the
dial based on a 0-1 value. 0 is 225째 \, 1 is 130째., f 26;
#X connect 0 0 1 0;
#X connect 1 0 2 0;
#X connect 2 0 3 0;
#X connect 3 0 4 0;
#X connect 4 0 5 0;
#X connect 4 0 6 0;
#X connect 5 0 8 0;
#X connect 6 0 7 0;
#X connect 7 0 9 0;
#X restore 299 676 pd dial-coordinates;
#X obj 486 253 cnv 15 325 150 empty empty Dynamically_create_graphics_and_scalars
2 9 0 14 -261682 -86853 0;
#X obj 492 276 r \$0-size;
#X obj 492 376 s pd-\$0-template;
#N canvas 0 94 1280 930 draw-knob 0;
#X text 44 5 This subpatch basically creates the backdrop \, the back
\, front \, and the dial.;
#X obj 2 243 outlet;
#X obj 2 2 inlet bang, f 5;
#X obj 2 42 t b b b b;
#X msg 62 68 obj 2 100 filledpolygon backdrop backdrop 0 -1 -1 1 -1
1 1 -1 1 -1 -1;
#X msg 42 108 obj 2 26 filledpolygon back back 0 0.87 0.5 0.5 0.87
-0 1 -0.5 0.87 -0.87 0.5 -1 -0 -0.87 -0.5 -0.5 -0.87 0 -1 0.5 -0.87
0.87 -0.5 1 0 0.87 0.5;
#X msg 22 163 obj 2 74 drawpolygon front 3 0 0 dx dy;
#X msg 2 188 obj 2 50 filledpolygon front front 0 0.52 0.3 0.3 0.52
-0 0.6 -0.3 0.52 -0.52 0.3 -0.6 -0 -0.52 -0.3 -0.3 -0.52 0 -0.6 0.3
-0.52 0.52 -0.3 0.6 0 0.52 0.3;
#X connect 2 0 3 0;
#X connect 3 0 7 0;
#X connect 3 1 6 0;
#X connect 3 2 5 0;
#X connect 3 3 4 0;
#X connect 4 0 1 0;
#X connect 5 0 1 0;
#X connect 6 0 1 0;
#X connect 7 0 1 0;
#X restore 492 326 pd draw-knob;
#N canvas 0 94 1280 930 calculate-create-scalars 0;
#X obj 2 128 int;
#X obj 22 53 expr 1 / $f1;
#X obj 2 153 until;
#X obj 2 178 f;
#X obj 32 178 + 1;
#X obj 2 203 mod;
#X msg 46 153 0, f 1;
#X obj 2 228 * 15;
#X obj 2 253 *;
#X obj 2 278 * 2;
#X obj 2 303 - 1;
#X obj 2 103 t f f;
#X obj 2 78 / 15;
#X obj 2 353 pack f s;
#X obj 115 103 int;
#X obj 115 53 / 7;
#X obj 115 78 - 3;
#X obj 115 153 until;
#X msg 115 178 55;
#X msg 115 203 add2 \$1;
#X obj 115 253 list trim;
#X obj 115 302 list tosymbol;
#X msg 178 203 set;
#X msg 115 228 55 55;
#X obj 2 328 t f b;
#X msg 2 378 obj 200 200 drawnumber value -1 \$1 999 \$2;
#X obj 2 403 outlet;
#X obj 2 27 t f f b;
#X obj 2 2 inlet;
#X text 166 51 This subpatch calculates the amount and the coordinates
of the [drawnumber] scalars which are used to manipulate the knob \,
and then sends an amount of [drawnumber]'s., f 23;
#X obj 115 128 max 0;
#X obj 115 277 route list;
#X connect 0 0 2 0;
#X connect 1 0 8 1;
#X connect 2 0 3 0;
#X connect 3 0 4 0;
#X connect 3 0 5 0;
#X connect 4 0 3 1;
#X connect 5 0 7 0;
#X connect 6 0 3 1;
#X connect 7 0 8 0;
#X connect 8 0 9 0;
#X connect 9 0 10 0;
#X connect 10 0 24 0;
#X connect 11 0 0 0;
#X connect 11 1 5 1;
#X connect 12 0 11 0;
#X connect 13 0 25 0;
#X connect 14 0 30 0;
#X connect 15 0 16 0;
#X connect 16 0 14 0;
#X connect 17 0 18 0;
#X connect 18 0 19 0;
#X connect 19 0 23 0;
#X connect 20 0 31 0;
#X connect 21 0 13 1;
#X connect 22 0 23 0;
#X connect 23 0 20 0;
#X connect 24 0 13 0;
#X connect 24 1 23 0;
#X connect 25 0 26 0;
#X connect 27 0 12 0;
#X connect 27 1 15 0;
#X connect 27 1 1 0;
#X connect 27 2 22 0;
#X connect 27 2 6 0;
#X connect 28 0 27 0;
#X connect 30 0 17 0;
#X connect 31 0 21 0;
#X restore 524 351 pd calculate-create-scalars;
#X obj 492 301 t b f;
#X obj 665 404 cnv 15 510 350 empty empty Initialize_struct_and_accept_inlet_values
2 9 0 14 -261234 -86277 0;
#X obj 988 699 pointer;
#X msg 1051 600 clear;
#X obj 1051 625 s pd-\$0-graphics;
#X msg 988 674 traverse \$1 \, bang;
#X obj 988 649 symbol pd-\$0-graphics;
#X obj 965 625 t b b b;
#X obj 669 424 inlet;
#N canvas 730 541 239 225 dial-coordinates 0;
#X obj 2 2 inlet;
#X obj 2 27 * 270;
#X obj 2 52 + 225;
#X obj 2 77 / 360;
#X obj 2 102 * 6.28319;
#X obj 2 127 sin;
#X obj 43 127 cos;
#X obj 43 152 * -1;
#X obj 2 177 outlet;
#X obj 43 202 outlet;
#X text 51 8 This subpatch calculates the two end coordinates of the
dial based on a 0-1 value. 0 is 225째 \, 1 is 130째., f 26;
#X connect 0 0 1 0;
#X connect 1 0 2 0;
#X connect 2 0 3 0;
#X connect 3 0 4 0;
#X connect 4 0 5 0;
#X connect 4 0 6 0;
#X connect 5 0 8 0;
#X connect 6 0 7 0;
#X connect 7 0 9 0;
#X restore 707 674 pd dial-coordinates;
#X obj 669 474 clip 0 1;
#X obj 669 499 t b f;
#X obj 462 651 outlet;
#X obj 299 576 clip 100 400;
#X obj 669 724 append \$0-knob value dx dy backdrop back front;
#X obj 669 699 pack f f f f f f, f 28;
#X obj 784 649 r \$0-backdrop;
#X obj 823 624 r \$0-back;
#X obj 862 674 r \$0-front;
#X obj 165 32 cnv 15 480 220 empty empty Accept_arguments 2 9 0 14
-232576 -45076 0;
#X obj 169 52 loadbang;
#X obj 201 127 pdcontrol;
#X msg 201 102 args;
#X text 655 195 easy shit: -thickness based on size -the special "-1"
command;
#X obj 669 524 f 0;
#X obj 314 451 unpack s p f f;
#X obj 245 476 sel click change;
#X obj 169 77 t b b;
#X obj 169 227 s \$0-init-0;
#X obj 965 600 r \$0-init-0;
#X msg 185 526 250;
#X obj 171 551 set \$0-knob value;
#X obj 299 527 pointer;
#N canvas 0 94 450 300 double-click 0;
#X obj 2 117 f 0;
#X obj 32 117 + 1;
#X obj 62 117 mod 2;
#X obj 62 142 sel 0;
#X obj 20 67 del 200;
#X msg 20 92 0, f 1;
#X obj 2 42 bang;
#X obj 62 167 outlet;
#X obj 2 2 inlet bang, f 5;
#X connect 0 0 1 0;
#X connect 1 0 0 1;
#X connect 1 0 2 0;
#X connect 2 0 3 0;
#X connect 3 0 7 0;
#X connect 4 0 5 0;
#X connect 5 0 0 1;
#X connect 6 0 0 0;
#X connect 6 0 4 0;
#X connect 8 0 6 0;
#X restore 185 501 pd double-click;
#X obj 669 549 util/scale 0 1 100 400;
#X obj 299 651 util/scale 100 400 0 1;
#X obj 201 152 list split 2, f 16;
#X obj 201 202 s \$0-arg;
#X obj 255 227 list;
#X obj 322 52 r \$0-arg;
#X obj 322 127 f 35;
#X obj 358 127 f 999;
#X obj 416 127 f 0;
#X obj 446 127 f 999;
#X obj 322 152 s \$0-size;
#X obj 358 177 s \$0-backdrop;
#X obj 416 152 s \$0-back;
#X obj 446 202 s \$0-front;
#X obj 201 177 list trim;
#X obj 322 77 t b a;
#X obj 347 102 route size backdrop back front min max;
#X obj 504 127 f 0;
#X obj 548 127 f 1;
#X obj 504 152 s \$0-min;
#X obj 548 177 s \$0-max;
#X obj 554 601 r \$0-min;
#X obj 585 576 r \$0-max;
#X obj 706 525 r \$0-min;
#X obj 744 501 r \$0-max;
#X obj 462 626 util/scale 0 1 0 1;
#X obj 707 599 util/scale 100 400 0 1;
#X obj 669 574 t f f;
#X obj 695 449 r \$0-min;
#X obj 722 424 r \$0-max;
#X connect 2 0 8 0;
#X connect 5 0 7 0;
#X connect 7 0 6 0;
#X connect 8 0 4 0;
#X connect 10 0 48 0;
#X connect 11 0 36 0;
#X connect 12 0 16 1;
#X connect 12 0 14 1;
#X connect 12 0 15 1;
#X connect 12 0 54 1;
#X connect 12 0 55 1;
#X connect 13 0 58 0;
#X connect 13 1 16 0;
#X connect 17 0 14 0;
#X connect 17 1 15 0;
#X connect 19 0 23 0;
#X connect 21 0 20 0;
#X connect 22 0 20 0;
#X connect 23 0 21 0;
#X connect 23 1 22 0;
#X connect 25 0 37 6;
#X connect 26 0 27 0;
#X connect 28 0 25 0;
#X connect 29 0 28 0;
#X connect 30 0 47 0;
#X connect 30 1 29 0;
#X connect 30 2 26 0;
#X connect 31 0 33 0;
#X connect 32 0 38 1;
#X connect 32 1 38 2;
#X connect 33 0 34 0;
#X connect 34 0 30 0;
#X connect 34 1 47 0;
#X connect 36 0 13 0;
#X connect 38 0 37 0;
#X connect 39 0 38 3;
#X connect 40 0 38 4;
#X connect 41 0 38 5;
#X connect 43 0 50 0;
#X connect 44 0 59 0;
#X connect 45 0 44 0;
#X connect 47 0 57 0;
#X connect 47 0 35 0;
#X connect 48 0 49 0;
#X connect 48 1 12 0;
#X connect 49 0 56 0;
#X connect 49 1 55 0;
#X connect 50 0 51 0;
#X connect 50 1 45 0;
#X connect 52 0 30 0;
#X connect 53 0 54 0;
#X connect 53 0 58 0;
#X connect 55 0 11 0;
#X connect 56 0 53 0;
#X connect 57 0 84 0;
#X connect 58 0 17 0;
#X connect 58 0 82 0;
#X connect 59 0 71 0;
#X connect 59 1 61 0;
#X connect 61 0 59 0;
#X connect 62 0 72 0;
#X connect 63 0 67 0;
#X connect 64 0 68 0;
#X connect 65 0 69 0;
#X connect 66 0 70 0;
#X connect 71 0 60 0;
#X connect 72 0 63 0;
#X connect 72 0 64 0;
#X connect 72 0 65 0;
#X connect 72 0 66 0;
#X connect 72 0 74 0;
#X connect 72 0 75 0;
#X connect 72 1 73 0;
#X connect 73 0 63 1;
#X connect 73 1 64 1;
#X connect 73 2 65 1;
#X connect 73 3 66 1;
#X connect 73 4 74 1;
#X connect 73 5 75 1;
#X connect 74 0 76 0;
#X connect 75 0 77 0;
#X connect 78 0 82 3;
#X connect 79 0 82 4;
#X connect 80 0 57 1;
#X connect 81 0 57 2;
#X connect 82 0 35 0;
#X connect 83 0 32 0;
#X connect 84 0 38 0;
#X connect 84 1 83 0;
#X connect 85 0 33 1;
#X connect 86 0 33 2;
#X coords -1 -1 1 1 35 35 2 32 32;
