#N struct 1332-knob float back float front float dx float dy float
value;
#N canvas 0 94 1280 930 12;
#N canvas 0 94 1280 930 \$0-graphics 0;
#X scalar 1332-knob 0 0 -0.707109 0.707105 0 \;;
#X coords -1 -1 1 1 45 45 2 2 2;
#X restore 32 32 pd \$0-graphics;
#X obj 150 103 s \$0-size;
#X obj 150 63 expr if($f2 > 0 \, \$1 \, 30), f 12;
#X obj 150 13 loadbang;
#X obj 243 38 pdcontrol;
#X msg 243 13 args;
#X obj 243 63 list length;
#X obj 150 38 t b b;
#X obj 63 338 cnv 15 320 150 empty empty Resize_GOP_and_the_graphics_subpatch
2 9 0 14 -203904 -16662 0;
#X obj 67 383 r \$0-size;
#X obj 67 358 namecanvas \$0-knob;
#X obj 67 464 s \$0-knob;
#X obj 226 358 r \$0-size;
#X obj 226 438 s pd-\$0-graphics;
#X msg 226 383 donecanvasdialog 1 1 2 -1 -1 1 1 \$1 \$1 2 2 \, dirty
0, f 20;
#X msg 67 409 donecanvasdialog 1 1 2 -1 -1 1 1 \$1 \$1 32 32 \, dirty
0, f 20;
#X obj 63 489 cnv 15 400 295 empty empty Get_struct_pointer_and_manipulate_scalar_values
2 9 0 14 -204800 -13330 0;
#N canvas 204 519 956 437 \$0-template 0;
#X obj 480 2 outlet;
#X obj 2 2 struct \$0-knob float back float front float dx float dy
float value, f 67;
#X obj 200 200 drawnumber value -1 -1 999 777;
#X obj 200 200 drawnumber value -1 -0.333333 999 777;
#X obj 200 200 drawnumber value -1 0.333333 999 777;
#X obj 2 100 filledpolygon 999 999 0 -1 -1 1 -1 1 1 -1 1 -1 -1;
#X obj 2 26 filledpolygon 0 0 0 0.87 0.5 0.5 0.87 -0 1 -0.5 0.87 -0.87
0.5 -1 -0 -0.87 -0.5 -0.5 -0.87 0 -1 0.5 -0.87 0.87 -0.5 1 0 0.87 0.5
;
#X obj 2 74 drawpolygon 999 3 0 0 dx dy;
#X obj 2 50 filledpolygon 999 999 0 0.52 0.3 0.3 0.52 -0 0.6 -0.3 0.52
-0.52 0.3 -0.6 -0 -0.52 -0.3 -0.3 -0.52 0 -0.6 0.3 -0.52 0.52 -0.3
0.6 0 0.52 0.3;
#X connect 1 0 0 0;
#X restore 68 510 pd \$0-template;
#X obj 68 535 unpack s p;
#X obj 68 560 sel change;
#X obj 68 610 get \$0-knob value;
#X obj 68 585 pointer;
#X obj 68 660 t f f;
#X obj 68 760 set \$0-knob dx;
#X obj 198 760 set \$0-knob dy;
#X obj 100 685 set \$0-knob value;
#X obj 68 635 clip 100 600;
#X obj 68 710 util/scale 100 600 0 1;
#N canvas 730 541 239 225 dial-coordinates 0;
#X obj 2 2 inlet;
#X obj 2 27 * 270;
#X obj 2 52 + 225;
#X obj 2 77 / 360;
#X obj 2 102 * 6.28319;
#X obj 2 127 sin;
#X obj 43 127 cos;
#X obj 43 152 * -1;
#X obj 2 177 outlet;
#X obj 43 202 outlet;
#X text 51 8 This subpatch calculates the two end coordinates of the
dial based on a 0-1 value. 0 is 225째 \, 1 is 130째., f 26;
#X connect 0 0 1 0;
#X connect 1 0 2 0;
#X connect 2 0 3 0;
#X connect 3 0 4 0;
#X connect 4 0 5 0;
#X connect 4 0 6 0;
#X connect 5 0 8 0;
#X connect 6 0 7 0;
#X connect 7 0 9 0;
#X restore 68 735 pd dial-coordinates;
#X obj 384 338 cnv 15 325 150 empty empty Dynamically_create_graphics_and_scalars
2 9 0 14 -261682 -86853 0;
#X obj 390 361 r \$0-size;
#X obj 390 461 s pd-\$0-template;
#N canvas 0 94 1280 930 draw-knob 0;
#X msg 22 132 obj 2 74 drawpolygon 999 3 0 0 dx dy;
#X obj 2 27 t b b b b;
#X msg 62 52 obj 2 100 filledpolygon 999 999 0 -1 -1 1 -1 1 1 -1 1
-1 -1;
#X obj 2 2 inlet;
#X obj 2 212 outlet;
#X text 85 6 This subpatch basically creates the white background \,
the back \, front \, and the dial., f 51;
#X msg 42 77 obj 2 26 filledpolygon 0 0 0 0.87 0.5 0.5 0.87 -0 1 -0.5
0.87 -0.87 0.5 -1 -0 -0.87 -0.5 -0.5 -0.87 0 -1 0.5 -0.87 0.87 -0.5
1 0 0.87 0.5;
#X msg 2 157 obj 2 50 filledpolygon 999 999 0 0.52 0.3 0.3 0.52 -0
0.6 -0.3 0.52 -0.52 0.3 -0.6 -0 -0.52 -0.3 -0.3 -0.52 0 -0.6 0.3 -0.52
0.52 -0.3 0.6 0 0.52 0.3;
#X connect 0 0 4 0;
#X connect 1 0 7 0;
#X connect 1 1 0 0;
#X connect 1 2 6 0;
#X connect 1 3 2 0;
#X connect 2 0 4 0;
#X connect 3 0 1 0;
#X connect 6 0 4 0;
#X connect 7 0 4 0;
#X restore 390 411 pd draw-knob;
#N canvas 0 94 1280 930 calculate-create-scalars 0;
#X obj 2 128 int;
#X obj 22 53 expr 1 / $f1;
#X obj 2 153 until;
#X obj 2 178 f;
#X obj 32 178 + 1;
#X obj 2 203 mod;
#X msg 46 153 0, f 1;
#X obj 2 228 * 15;
#X obj 2 253 *;
#X obj 2 278 * 2;
#X obj 2 303 - 1;
#X obj 2 103 t f f;
#X obj 2 78 / 15;
#X obj 2 353 pack f s;
#X obj 115 103 int;
#X obj 115 53 / 7;
#X obj 115 78 - 3;
#X obj 115 153 until;
#X msg 115 178 55;
#X msg 115 203 add2 \$1;
#X obj 115 253 list trim;
#X obj 115 302 list tosymbol;
#X msg 178 203 set;
#X msg 115 228 55 55 55;
#X obj 2 328 t f b;
#X msg 2 378 obj 200 200 drawnumber value -1 \$1 999 \$2;
#X obj 2 403 outlet;
#X obj 2 27 t f f b;
#X obj 2 2 inlet;
#X text 166 51 This subpatch calculates the amount and the coordinates
of the [drawnumber] scalars which are used to manipulate the knob \,
and then sends an amount of [drawnumber]'s., f 23;
#X obj 115 128 max 0;
#X obj 115 277 route list;
#X connect 0 0 2 0;
#X connect 1 0 8 1;
#X connect 2 0 3 0;
#X connect 3 0 4 0;
#X connect 3 0 5 0;
#X connect 4 0 3 1;
#X connect 5 0 7 0;
#X connect 6 0 3 1;
#X connect 7 0 8 0;
#X connect 8 0 9 0;
#X connect 9 0 10 0;
#X connect 10 0 24 0;
#X connect 11 0 0 0;
#X connect 11 1 5 1;
#X connect 12 0 11 0;
#X connect 13 0 25 0;
#X connect 14 0 30 0;
#X connect 15 0 16 0;
#X connect 16 0 14 0;
#X connect 17 0 18 0;
#X connect 18 0 19 0;
#X connect 19 0 23 0;
#X connect 20 0 31 0;
#X connect 21 0 13 1;
#X connect 22 0 23 0;
#X connect 23 0 20 0;
#X connect 24 0 13 0;
#X connect 24 1 23 0;
#X connect 25 0 26 0;
#X connect 27 0 12 0;
#X connect 27 1 15 0;
#X connect 27 1 1 0;
#X connect 27 2 22 0;
#X connect 27 2 6 0;
#X connect 28 0 27 0;
#X connect 30 0 17 0;
#X connect 31 0 21 0;
#X restore 422 436 pd calculate-create-scalars;
#X obj 390 386 t b f;
#X obj 464 489 cnv 15 360 180 empty empty Initialize_struct_and_accept_inlet_values
2 9 0 14 -261234 -86277 0;
#X obj 661 610 pointer;
#X msg 703 511 clear;
#X obj 703 536 s pd-\$0-graphics;
#X msg 661 585 traverse \$1 \, bang;
#X obj 661 560 symbol pd-\$0-graphics;
#X obj 638 511 loadbang;
#X obj 638 536 t b b b;
#X obj 482 610 pack f f f;
#X obj 468 510 inlet;
#N canvas 730 541 239 225 dial-coordinates 0;
#X obj 2 2 inlet;
#X obj 2 27 * 270;
#X obj 2 52 + 225;
#X obj 2 77 / 360;
#X obj 2 102 * 6.28319;
#X obj 2 127 sin;
#X obj 43 127 cos;
#X obj 43 152 * -1;
#X obj 2 177 outlet;
#X obj 43 202 outlet;
#X text 51 8 This subpatch calculates the two end coordinates of the
dial based on a 0-1 value. 0 is 225째 \, 1 is 130째., f 26;
#X connect 0 0 1 0;
#X connect 1 0 2 0;
#X connect 2 0 3 0;
#X connect 3 0 4 0;
#X connect 4 0 5 0;
#X connect 4 0 6 0;
#X connect 5 0 8 0;
#X connect 6 0 7 0;
#X connect 7 0 9 0;
#X restore 515 585 pd dial-coordinates;
#X obj 482 635 append \$0-knob value dx dy;
#X obj 482 585 f;
#X obj 468 535 clip 0 1;
#X obj 468 560 t b f;
#X text 771 316 easy shit: -arguments -thickness based on size -the
special "-1" command;
#X connect 2 0 1 0;
#X connect 3 0 7 0;
#X connect 4 0 6 0;
#X connect 5 0 4 0;
#X connect 6 0 2 1;
#X connect 7 0 2 0;
#X connect 7 1 5 0;
#X connect 9 0 15 0;
#X connect 12 0 14 0;
#X connect 14 0 13 0;
#X connect 15 0 11 0;
#X connect 17 0 18 0;
#X connect 18 0 19 0;
#X connect 18 1 21 1;
#X connect 19 0 21 0;
#X connect 20 0 26 0;
#X connect 21 0 20 0;
#X connect 21 0 25 1;
#X connect 21 0 23 1;
#X connect 21 0 24 1;
#X connect 22 0 27 0;
#X connect 22 1 25 0;
#X connect 26 0 22 0;
#X connect 27 0 28 0;
#X connect 28 0 23 0;
#X connect 28 1 24 0;
#X connect 30 0 34 0;
#X connect 32 0 31 0;
#X connect 33 0 31 0;
#X connect 34 0 32 0;
#X connect 34 1 33 0;
#X connect 36 0 46 3;
#X connect 37 0 38 0;
#X connect 39 0 36 0;
#X connect 40 0 39 0;
#X connect 41 0 42 0;
#X connect 42 0 47 0;
#X connect 42 1 40 0;
#X connect 42 2 37 0;
#X connect 43 0 46 0;
#X connect 44 0 48 0;
#X connect 45 0 43 1;
#X connect 45 1 43 2;
#X connect 47 0 45 0;
#X connect 47 0 43 0;
#X connect 48 0 49 0;
#X connect 49 0 42 0;
#X connect 49 1 47 1;
#X coords -1 -1 1 1 45 45 2 32 32;
