#N struct 1005-knob float back float front float dx float dy float
value;
#N canvas 0 94 1280 930 12;
#N canvas 292 496 960 437 \$0-template 0;
#X obj 2 137 struct \$0-knob float back float front float dx float
dy float value, f 67;
#X obj 2 162 outlet;
#X obj 104 409 drawnumber value -1 0.8, f 67;
#X obj 104 183 drawnumber value -1 -1 0 xxxx==, f 67;
#X obj 104 209 drawnumber value -1 -0.8 0 xxxx==, f 67;
#X obj 104 234 drawnumber value -1 -0.6 0 xxxx==, f 67;
#X obj 104 259 drawnumber value -1 -0.4 0 xxxx==, f 67;
#X obj 104 284 drawnumber value -1 -0.2 0 xxxx==, f 67;
#X obj 104 309 drawnumber value -1 0 0 xxxx==, f 67;
#X obj 104 334 drawnumber value -1 0.2 0 xxxx==, f 67;
#X obj 104 359 drawnumber value -1 0.4 0 xxxx==, f 67;
#X obj 104 384 drawnumber value -1 0.6 0 xxxx==, f 67;
#X obj 2 1 filledpolygon 0 0 0 0.92 0.38 0.71 0.71 0.38 0.92 -0 1 -0.38
0.92 -0.71 0.71 -0.92 0.38 -1 -0 -0.92 -0.38 -0.71 -0.71 -0.38 -0.92
0 -1 0.38 -0.92 0.71 -0.71 0.92 -0.38 1 0 0.92 0.38, f 67;
#X obj 2 57 filledpolygon 999 999 0 0.55 0.23 0.42 0.42 0.23 0.55 -0
0.6 -0.23 0.55 -0.42 0.42 -0.55 0.23 -0.6 -0 -0.55 -0.23 -0.42 -0.42
-0.23 -0.55 0 -0.6 0.23 -0.55 0.42 -0.42 0.55 -0.23 0.6 0 0.55 0.23
, f 67;
#X obj 2 112 drawpolygon 999 3 0 0 dx dy, f 67;
#X connect 0 0 1 0;
#X restore 32 101 pd \$0-template;
#X obj 539 471 f;
#X obj 557 446 r \$0-back;
#X obj 592 471 r \$0-front;
#N canvas 0 94 1280 930 \$0-graphics 0;
#X scalar 1005-knob 0 0 -0.932072 0.362273 44 \;;
#X coords -1 -1 1 1 64 64 2 2 2;
#X restore 32 32 pd \$0-graphics;
#X obj 32 126 unpack s p;
#X obj 32 151 sel change;
#X obj 32 201 get \$0-knob value;
#X obj 32 176 pointer;
#X obj 32 226 clip 0 500;
#X obj 32 251 t f f;
#X obj 32 301 / 500;
#X obj 32 326 * 270;
#X obj 32 351 + 225;
#X obj 32 376 / 360;
#X obj 32 401 * 6.28319;
#X obj 32 426 sin;
#X obj 74 426 cos;
#X obj 711 495 pointer;
#X msg 753 396 clear;
#X obj 753 421 s pd-\$0-graphics;
#X msg 711 470 traverse \$1 \, bang;
#X obj 711 445 symbol pd-\$0-graphics;
#X obj 32 476 set \$0-knob dx;
#X obj 74 501 set \$0-knob dy;
#X obj 64 276 set \$0-knob value;
#X obj 688 396 loadbang;
#X obj 74 451 * -1;
#X floatatom 972 285 5 0 0 0 - - -;
#X obj 972 359 int;
#X obj 972 309 / 8;
#X obj 539 495 pack f f;
#X obj 539 520 append \$0-knob back front;
#X obj 688 421 t b b b;
#X obj 888 616 text;
#X floatatom 972 384 5 0 0 0 - - -;
#X obj 972 334 - 2;
#X obj 141 327 / 500;
#X obj 141 352 outlet;
#X connect 0 0 5 0;
#X connect 1 0 31 0;
#X connect 2 0 1 1;
#X connect 3 0 31 1;
#X connect 5 0 6 0;
#X connect 5 1 8 1;
#X connect 6 0 8 0;
#X connect 7 0 9 0;
#X connect 8 0 7 0;
#X connect 8 0 25 1;
#X connect 8 0 23 1;
#X connect 8 0 24 1;
#X connect 9 0 10 0;
#X connect 10 0 11 0;
#X connect 10 1 25 0;
#X connect 10 1 37 0;
#X connect 11 0 12 0;
#X connect 12 0 13 0;
#X connect 13 0 14 0;
#X connect 14 0 15 0;
#X connect 15 0 16 0;
#X connect 15 0 17 0;
#X connect 16 0 23 0;
#X connect 17 0 27 0;
#X connect 18 0 32 2;
#X connect 19 0 20 0;
#X connect 21 0 18 0;
#X connect 22 0 21 0;
#X connect 26 0 33 0;
#X connect 27 0 24 0;
#X connect 28 0 30 0;
#X connect 29 0 35 0;
#X connect 30 0 36 0;
#X connect 31 0 32 0;
#X connect 33 0 1 0;
#X connect 33 1 22 0;
#X connect 33 2 19 0;
#X connect 36 0 29 0;
#X connect 37 0 38 0;
#X coords 0 0 1 1 64 64 2 32 32;
