#N struct 1827-knob float value float px1 float px2 float py1 float
py2;
#N canvas 0 94 1280 930 12;
#N canvas 548 213 457 679 \$0-template 0;
#X obj 2 2 struct \$0-knob float value float px1 float px2 float py1
float py2;
#X obj 2 42 s \$0-event;
#X obj 2 167 drawnumber value 0 0 0 77;
#X obj 2 192 drawnumber value 0 16 0 77;
#X obj 2 217 drawnumber value 0 19 0 77;
#X obj 2 67 filledpolygon 999 999 0 0 0 35 0 35 35 0 35 0 0;
#X obj 2 92 drawpolygon 0 35 17 17 18 17 18 18 17 18 17 17;
#X obj 2 117 drawpolygon 999 5 px1 py1 px2 py1 px2 py2 px1 py2 px1
py1;
#X connect 0 0 1 0;
#X restore 32 7 pd \$0-template;
#X obj 344 479 unpack s p f f;
#X obj 480 479 get \$0-knob value;
#X obj 344 454 r \$0-event;
#X obj 662 604 r \$0-size;
#N canvas 0 94 1280 930 dial-coordinates 0;
#X obj 2 141 * 270;
#X obj 2 166 + 225;
#X obj 2 191 / 360;
#X obj 2 216 * 6.28319;
#X obj 2 241 sin;
#X obj 104 241 cos;
#X obj 104 266 * -1;
#X obj 53 2 inlet size, f 5;
#X obj 2 316 - 1;
#X obj 2 406 outlet px1, f 6;
#X obj 53 406 outlet px2, f 6;
#X obj 104 341 - 1;
#X obj 104 366 outlet py1, f 6;
#X obj 155 366 outlet py2, f 6;
#X obj 2 116 util/scale 100 400 0 1;
#X obj 104 316 util/scale -1 1 6 1;
#X obj 2 291 util/scale -1 1 6 1;
#X obj 146 66 -;
#X obj 53 41 t f f;
#X obj 53 91 + 2;
#N canvas 0 94 450 300 dial-size 0;
#X obj 2 2 inlet;
#X obj 2 27 / 12;
#X obj 39 27 + 0.5;
#X obj 39 52 i;
#X obj 83 77 mod 2;
#X obj 127 127 f;
#X obj 159 127 f;
#X obj 159 152 - 1;
#X obj 127 102 t b;
#X obj 159 102 t b;
#X obj 39 77 t f f;
#X obj 127 77 sel 1;
#X obj 127 177 max 5;
#X obj 127 202 outlet;
#X connect 0 0 1 0;
#X connect 1 0 2 0;
#X connect 2 0 3 0;
#X connect 3 0 10 0;
#X connect 4 0 11 0;
#X connect 5 0 12 0;
#X connect 6 0 7 0;
#X connect 7 0 12 0;
#X connect 8 0 5 0;
#X connect 9 0 6 0;
#X connect 10 0 4 0;
#X connect 10 1 5 1;
#X connect 10 1 6 1;
#X connect 11 0 8 0;
#X connect 11 1 9 0;
#X connect 12 0 13 0;
#X restore 53 66 pd dial-size;
#X obj 2 2 inlet value, f 5;
#X connect 0 0 1 0;
#X connect 1 0 2 0;
#X connect 2 0 3 0;
#X connect 3 0 4 0;
#X connect 3 0 5 0;
#X connect 4 0 16 0;
#X connect 5 0 6 0;
#X connect 6 0 15 0;
#X connect 7 0 18 0;
#X connect 8 0 9 0;
#X connect 11 0 12 0;
#X connect 14 0 0 0;
#X connect 15 0 11 0;
#X connect 15 0 13 0;
#X connect 16 0 8 0;
#X connect 16 0 10 0;
#X connect 17 0 16 4;
#X connect 17 0 15 4;
#X connect 18 0 17 0;
#X connect 18 1 20 0;
#X connect 19 0 17 1;
#X connect 19 0 16 3;
#X connect 19 0 15 3;
#X connect 20 0 19 0;
#X connect 21 0 14 0;
#X restore 525 629 pd dial-coordinates;
#X f 20;
#X msg 201 506 clear;
#X obj 201 531 s pd-\$0-graphics;
#X msg 178 581 traverse \$1 \, bang;
#X obj 178 556 symbol pd-\$0-graphics;
#X obj 155 481 t b b b;
#X obj 178 606 pointer;
#X obj 389 267 r \$0-size;
#N canvas 716 665 450 300 circle-stuff 0;
#X obj 2 2 inlet size, f 5;
#X obj 32 42 / 2;
#X obj 62 42 + 1;
#X obj 2 67 outlet max range, f 3;
#X obj 32 92 outlet n1, f 3;
#X obj 62 92 outlet n2, f 3;
#X obj 32 67 i;
#X obj 62 67 i;
#X obj 2 42 - 1;
#X connect 0 0 8 0;
#X connect 1 0 2 0;
#X connect 1 0 6 0;
#X connect 2 0 7 0;
#X connect 6 0 4 0;
#X connect 7 0 5 0;
#X connect 8 0 3 0;
#X connect 8 0 1 0;
#X restore 370 292 pd circle-stuff;
#X obj 370 317 s \$0-maxrange;
#X obj 34 292 r \$0-size;
#X obj 34 267 namecanvas \$0-knob;
#X obj 34 372 s \$0-knob;
#X obj 193 397 s pd-\$0-graphics;
#X obj 193 317 pack f f;
#X msg 34 317 donecanvasdialog 1 1 2 0 0 1 1 \$1 \$1 32 32 \, dirty
0, f 20;
#X obj 193 267 r \$0-maxrange;
#X obj 246 292 r \$0-size;
#X msg 193 342 donecanvasdialog 1 1 2 0 0 \$1 \$1 \$2 \$2 2 2 \, dirty
0, f 20;
#N canvas 0 94 1280 930 dynamic-graphics 0;
#X obj 46 2 inlet n1, f 5;
#X obj 90 2 inlet n2, f 5;
#X obj 266 27 outlet;
#X obj 266 2 r \$0-msg;
#X obj 2 2 inlet size, f 5;
#X obj 46 42 t b f;
#X obj 90 42 t b f;
#X obj 2 42 t b f;
#X obj 134 42 t b f;
#X obj 178 42 t b f;
#X obj 222 42 t b f;
#X obj 134 2 inlet drop, f 5;
#X obj 178 2 inlet back, f 5;
#X obj 222 2 inlet front, f 5;
#X obj 2 95 t b b b b b, f 49;
#X msg 342 120 clear;
#X obj 342 145 s \$0-msg;
#X obj 257 145 s \$0-msg;
#N canvas 206 243 595 188 struct 0;
#X obj 2 42 t b b b;
#X msg 2 117 connect 0 0 1 0;
#X msg 25 92 obj 2 42 s \\\$0-event;
#X msg 48 67 obj 2 2 struct \\\$0-knob float value float px1 float
px2 float py1 float py2, f 75;
#X obj 2 2 inlet bang, f 5;
#X obj 2 142 outlet message, f 7;
#X connect 0 0 1 0;
#X connect 0 1 2 0;
#X connect 0 2 3 0;
#X connect 1 0 5 0;
#X connect 2 0 5 0;
#X connect 3 0 5 0;
#X connect 4 0 0 0;
#X restore 257 120 pd struct;
#N canvas 156 172 369 448 scalars 0;
#X obj 2 52 / 16;
#X obj 2 127 until;
#X obj 2 102 i;
#X obj 2 152 0, f 2;
#X obj 25 152 + 1;
#X obj 2 202 * 16;
#X obj 39 202 * 25;
#X obj 2 177 t f f;
#X obj 2 77 t f b;
#X obj 34 102 0, f 1;
#X obj 65 27 i;
#X obj 65 52 ==;
#X obj 65 77 sel 0;
#X obj 65 127 f;
#X obj 65 102 t b;
#X obj 2 2 inlet;
#X obj 65 152 t f f;
#X obj 2 400 outlet;
#X obj 102 177 / 16;
#X obj 102 202 i;
#X obj 65 177 - 16;
#X msg 209 227 adddollar 2;
#X msg 226 202 add2 obj 2;
#X msg 141 202 add2 0;
#X msg 255 177 set;
#N canvas 0 94 1280 930 horizontal-padding 0;
#X obj 20 27 / 7;
#X obj 20 52 - 3;
#X obj 2 77 i;
#X obj 2 127 until;
#X obj 2 152 f;
#X obj 32 152 + 1;
#X obj 32 177 mod;
#X obj 46 127 sel 0;
#X obj 2 102 t b f b;
#X msg 32 202 add2 55;
#X msg 32 227 55 55;
#X msg 95 202 set;
#X obj 32 252 list tosymbol;
#X obj 20 2 inlet;
#X obj 32 277 outlet;
#X obj 50 27 >= 0;
#X obj 50 52 sel 1;
#X obj 50 77 t b;
#X connect 0 0 1 0;
#X connect 1 0 2 1;
#X connect 1 0 15 0;
#X connect 2 0 8 0;
#X connect 3 0 4 0;
#X connect 4 0 5 0;
#X connect 5 0 6 0;
#X connect 6 0 4 1;
#X connect 6 0 9 0;
#X connect 6 0 7 0;
#X connect 7 0 3 1;
#X connect 7 0 10 0;
#X connect 8 0 3 0;
#X connect 8 1 6 1;
#X connect 8 2 11 0;
#X connect 9 0 10 0;
#X connect 10 0 12 0;
#X connect 11 0 10 0;
#X connect 12 0 14 0;
#X connect 13 0 0 0;
#X connect 15 0 16 0;
#X connect 16 0 17 0;
#X connect 17 0 2 0;
#X restore 109 127 pd horizontal-padding;
#X msg 109 152 add2 \$1;
#X obj 109 102 t f b;
#X obj 2 27 f;
#X obj 2 350 pack f f f;
#X msg 192 252 add2 drawnumber value;
#X msg 2 375 obj 2 \$2 drawnumber value \$3 \$1 0 77;
#X msg 175 277 adddollar 3;
#X obj 141 177 t b b b b b b b;
#X msg 158 302 adddollar 1;
#X obj 99 250 / 7;
#X obj 99 275 i;
#X obj 69 275 -;
#X obj 69 300 * 7;
#X obj 69 325 / 2;
#X obj 39 227 + 167;
#X connect 0 0 8 0;
#X connect 0 0 10 0;
#X connect 0 0 11 1;
#X connect 1 0 3 0;
#X connect 2 0 1 0;
#X connect 3 0 4 0;
#X connect 3 0 7 0;
#X connect 4 0 3 1;
#X connect 5 0 29 0;
#X connect 6 0 40 0;
#X connect 7 0 5 0;
#X connect 7 1 6 0;
#X connect 8 0 2 0;
#X connect 8 1 9 0;
#X connect 9 0 3 1;
#X connect 10 0 11 0;
#X connect 11 0 12 0;
#X connect 12 0 14 0;
#X connect 13 0 16 0;
#X connect 14 0 13 0;
#X connect 15 0 28 0;
#X connect 16 0 20 0;
#X connect 16 1 18 0;
#X connect 18 0 19 0;
#X connect 19 0 6 0;
#X connect 20 0 29 0;
#X connect 21 0 31 0;
#X connect 22 0 31 0;
#X connect 23 0 31 0;
#X connect 24 0 31 0;
#X connect 25 0 26 0;
#X connect 26 0 31 0;
#X connect 27 0 25 0;
#X connect 27 1 33 0;
#X connect 28 0 0 0;
#X connect 28 0 13 1;
#X connect 28 0 27 0;
#X connect 28 0 35 0;
#X connect 29 0 31 0;
#X connect 30 0 31 0;
#X connect 31 0 17 0;
#X connect 32 0 31 0;
#X connect 33 0 23 0;
#X connect 33 1 34 0;
#X connect 33 2 32 0;
#X connect 33 3 30 0;
#X connect 33 4 21 0;
#X connect 33 5 22 0;
#X connect 33 6 24 0;
#X connect 34 0 31 0;
#X connect 35 0 36 0;
#X connect 35 0 37 0;
#X connect 36 0 37 1;
#X connect 37 0 38 0;
#X connect 38 0 39 0;
#X connect 39 0 29 2;
#X connect 40 0 29 1;
#X restore 172 120 pd scalars;
#X obj 172 145 s \$0-msg;
#N canvas 0 94 400 141 backdrop 0;
#X obj 2 42 pack f f;
#X msg 2 67 obj 2 67 filledpolygon \$2 \$2 0 0 0 \$1 0 \$1 \$1 0 \$1
0 0;
#X obj 2 2 inlet size, f 5;
#X obj 55 2 inlet color, f 5;
#X obj 2 92 outlet message, f 7;
#X connect 0 0 1 0;
#X connect 1 0 4 0;
#X connect 2 0 0 0;
#X connect 3 0 0 1;
#X restore 87 120 pd backdrop;
#X obj 87 145 s \$0-msg;
#N canvas 405 374 502 218 knob 0;
#N canvas 0 94 450 300 dial-size 0;
#X obj 2 2 inlet;
#X obj 2 27 / 12;
#X obj 39 27 + 0.5;
#X obj 39 52 i;
#X obj 83 77 mod 2;
#X obj 127 127 f;
#X obj 159 127 f;
#X obj 159 152 - 1;
#X obj 127 102 t b;
#X obj 159 102 t b;
#X obj 39 77 t f f;
#X obj 127 77 sel 1;
#X obj 127 177 max 5;
#X obj 127 202 outlet;
#X connect 0 0 1 0;
#X connect 1 0 2 0;
#X connect 2 0 3 0;
#X connect 3 0 10 0;
#X connect 4 0 11 0;
#X connect 5 0 12 0;
#X connect 6 0 7 0;
#X connect 7 0 12 0;
#X connect 8 0 5 0;
#X connect 9 0 6 0;
#X connect 10 0 4 0;
#X connect 10 1 5 1;
#X connect 10 1 6 1;
#X connect 11 0 8 0;
#X connect 11 1 9 0;
#X connect 12 0 13 0;
#X restore 2 97 pd dial-size;
#X obj 2 122 pack f f;
#X msg 95 122 obj 2 92 drawpolygon \$4 \$1 \$2 \$2 \$3 \$2 \$3 \$3
\$2 \$3 \$2 \$2;
#X msg 2 147 obj 2 117 drawpolygon \$2 \$1 px1 py1 px2 py1 px2 py2
px1 py2 px1 py1, f 67;
#X obj 213 2 inlet front color, f 11;
#X obj 46 2 inlet n1, f 5;
#X obj 90 2 inlet n2, f 5;
#X obj 134 2 inlet back color, f 10;
#X obj 95 97 pack f f f f;
#X obj 2 172 outlet message, f 7;
#X obj 2 2 inlet size or bang, f 5;
#X obj 2 72 t a a;
#X connect 0 0 1 0;
#X connect 1 0 3 0;
#X connect 2 0 9 0;
#X connect 3 0 9 0;
#X connect 4 0 1 1;
#X connect 5 0 8 1;
#X connect 6 0 8 2;
#X connect 7 0 8 3;
#X connect 8 0 2 0;
#X connect 10 0 11 0;
#X connect 11 0 0 0;
#X connect 11 1 8 0;
#X restore 2 120 pd knob;
#X obj 2 145 s \$0-msg;
#X text 268 54 As for the wire mess---can't fix it \, messages do stack
overflows., f 33;
#X connect 0 0 5 0;
#X connect 1 0 6 0;
#X connect 3 0 2 0;
#X connect 4 0 7 0;
#X connect 5 0 14 0;
#X connect 5 1 23 1;
#X connect 6 0 14 0;
#X connect 6 1 23 2;
#X connect 7 0 14 0;
#X connect 7 1 21 0;
#X connect 7 1 23 0;
#X connect 7 1 19 0;
#X connect 8 0 14 0;
#X connect 8 1 21 1;
#X connect 9 0 14 0;
#X connect 9 1 23 3;
#X connect 10 0 14 0;
#X connect 10 1 23 4;
#X connect 11 0 8 0;
#X connect 12 0 9 0;
#X connect 13 0 10 0;
#X connect 14 0 23 0;
#X connect 14 1 21 0;
#X connect 14 2 19 0;
#X connect 14 3 18 0;
#X connect 14 4 15 0;
#X connect 15 0 16 0;
#X connect 18 0 17 0;
#X connect 19 0 20 0;
#X connect 21 0 22 0;
#X connect 23 0 24 0;
#X restore 389 342 pd dynamic-graphics;
#X f 23;
#X obj 389 366 s pd-\$0-template;
#X obj 165 48 loadbang;
#X obj 197 123 pdcontrol;
#X msg 197 98 args;
#X obj 165 73 t b b;
#X obj 197 148 list split 2, f 16;
#X obj 197 198 s \$0-arg;
#X obj 269 173 list;
#X obj 380 48 r \$0-arg;
#X obj 394 198 s \$0-size, f 7;
#X obj 513 198 s \$0-back, f 7;
#X obj 572 198 s \$0-front, f 7;
#X obj 197 173 list trim;
#X obj 632 198 s \$0-min, f 6;
#X obj 691 198 s \$0-max, f 6;
#X obj 394 173 35;
#X obj 453 173 999;
#X obj 513 173 0;
#X obj 572 173 999;
#X obj 632 173 0;
#X obj 691 173 1;
#X obj 306 173 t b;
#X obj 306 198 s \$0-arg;
#X obj 453 198 s \$0-drop, f 7;
#X text 164 27 Accept arguments on creation;
#X text 33 247 Resize GOPs and dynamically create the graphics.;
#X text 32 430 Initialize the struct;
#X text 343 430 Accept events from the struct and move the dial.;
#N canvas 0 94 1280 930 \$0-graphics 0;
#X scalar 1827-knob 250 16.5 17.5 6 7 \;;
#X coords 0 0 34 34 35 35 2 2 2;
#X restore 32 32 pd \$0-graphics;
#X obj 483 317 r \$0-drop;
#X obj 515 292 r \$0-back;
#X obj 547 267 r \$0-front;
#X obj 806 148 r \$0-min;
#X obj 871 148 r \$0-max;
#N canvas 0 94 450 300 double-click 0;
#X obj 2 117 f 0;
#X obj 32 117 + 1;
#X obj 62 117 mod 2;
#X obj 62 142 sel 0;
#X obj 20 67 del 200;
#X msg 20 92 0, f 1;
#X obj 2 42 bang;
#X obj 2 2 inlet bang, f 5;
#X obj 62 192 outlet;
#X msg 62 167 bang;
#X connect 0 0 1 0;
#X connect 1 0 0 1;
#X connect 1 0 2 0;
#X connect 2 0 3 0;
#X connect 3 0 9 0;
#X connect 4 0 5 0;
#X connect 5 0 0 1;
#X connect 6 0 0 0;
#X connect 6 0 4 0;
#X connect 7 0 6 0;
#X connect 9 0 8 0;
#X restore 344 554 pd double-click;
#X obj 362 579 r \$0-default;
#X obj 344 529 sel click change;
#X obj 769 198 util/scale 0 1 100 400;
#X obj 412 123 route size drop back front min max default, f 60;
#X obj 375 504 s \$0-pointer;
#X obj 480 579 r \$0-value;
#X obj 480 454 r \$0-pointer;
#X obj 708 629 r \$0-pointer;
#X obj 344 629 s \$0-value;
#X obj 480 504 clip 100 400;
#X obj 480 529 s \$0-value;
#X obj 864 524 r \$0-min;
#X obj 929 524 r \$0-max;
#X obj 827 499 inlet;
#X obj 827 549 util/scale 0 1 100 400;
#X obj 41 606 f;
#X obj 59 581 r \$0-default;
#X obj 165 223 s \$0-init;
#X obj 155 455 r \$0-init;
#X obj 41 656 s \$0-pointer;
#X obj 41 631 append \$0-knob value;
#X obj 480 654 set \$0-knob value px1 px2 py1 py2;
#X obj 480 604 t f f;
#X obj 871 499 change;
#X obj 922 499 outlet;
#X obj 344 604 f;
#X obj 871 449 r \$0-value;
#X obj 871 474 util/scale 100 400 0 1;
#X obj 984 449 r \$0-min;
#X obj 1022 424 r \$0-max;
#X obj 394 148 r \$0-b;
#X obj 453 148 r \$0-b;
#X obj 513 148 r \$0-b;
#X obj 572 148 r \$0-b;
#X obj 632 148 r \$0-b;
#X obj 691 148 r \$0-b;
#X obj 380 98 s \$0-b;
#X obj 380 73 t b a;
#X obj 871 173 t b f;
#X obj 806 173 t b f;
#X text 826 426 Inlet and outlet.;
#X obj 827 574 clip 100 400;
#X obj 827 599 s \$0-value;
#X obj 769 223 clip 100 400;
#X obj 769 248 s \$0-default;
#X connect 1 0 61 0;
#X connect 1 1 64 0;
#X connect 2 0 69 0;
#X connect 3 0 1 0;
#X connect 4 0 5 1;
#X connect 5 0 81 1;
#X connect 5 1 81 2;
#X connect 5 2 81 3;
#X connect 5 3 81 4;
#X connect 6 0 7 0;
#X connect 8 0 11 0;
#X connect 9 0 8 0;
#X connect 10 0 75 0;
#X connect 10 1 9 0;
#X connect 10 2 6 0;
#X connect 11 0 80 1;
#X connect 12 0 13 0;
#X connect 12 0 24 0;
#X connect 13 0 14 0;
#X connect 13 1 24 1;
#X connect 13 2 24 2;
#X connect 15 0 20 0;
#X connect 19 0 23 0;
#X connect 20 0 17 0;
#X connect 21 0 19 0;
#X connect 22 0 19 1;
#X connect 23 0 18 0;
#X connect 24 0 25 0;
#X connect 26 0 29 0;
#X connect 27 0 30 0;
#X connect 28 0 27 0;
#X connect 29 0 77 0;
#X connect 29 1 28 0;
#X connect 30 0 37 0;
#X connect 30 1 32 0;
#X connect 30 2 46 0;
#X connect 32 0 30 0;
#X connect 33 0 97 0;
#X connect 37 0 31 0;
#X connect 40 0 34 0;
#X connect 41 0 48 0;
#X connect 42 0 35 0;
#X connect 43 0 36 0;
#X connect 44 0 38 0;
#X connect 45 0 39 0;
#X connect 46 0 47 0;
#X connect 54 0 24 3;
#X connect 55 0 24 4;
#X connect 56 0 24 5;
#X connect 57 0 99 0;
#X connect 58 0 98 0;
#X connect 59 0 85 0;
#X connect 60 0 85 1;
#X connect 61 0 59 0;
#X connect 62 0 103 0;
#X connect 63 0 40 1;
#X connect 63 1 41 1;
#X connect 63 2 42 1;
#X connect 63 3 43 1;
#X connect 63 4 44 1;
#X connect 63 5 45 1;
#X connect 63 6 62 0;
#X connect 65 0 82 0;
#X connect 66 0 2 0;
#X connect 67 0 81 5;
#X connect 69 0 70 0;
#X connect 71 0 74 1;
#X connect 72 0 74 2;
#X connect 73 0 83 0;
#X connect 73 0 74 0;
#X connect 74 0 101 0;
#X connect 75 0 80 0;
#X connect 76 0 75 1;
#X connect 78 0 10 0;
#X connect 80 0 79 0;
#X connect 82 0 81 0;
#X connect 82 1 5 0;
#X connect 83 0 84 0;
#X connect 85 0 68 0;
#X connect 86 0 87 0;
#X connect 87 0 83 0;
#X connect 88 0 87 3;
#X connect 89 0 87 4;
#X connect 90 0 40 0;
#X connect 91 0 41 0;
#X connect 92 0 42 0;
#X connect 93 0 43 0;
#X connect 94 0 44 0;
#X connect 95 0 45 0;
#X connect 97 0 96 0;
#X connect 97 1 63 0;
#X connect 98 0 62 0;
#X connect 98 1 62 2;
#X connect 99 0 62 0;
#X connect 99 1 62 1;
#X connect 101 0 102 0;
#X connect 103 0 104 0;
#X coords 0 0 1 1 35 35 2 32 32;
