#N canvas 0 94 1280 930 12;
#X obj 165 32 loadbang;
#X obj 197 107 pdcontrol;
#X msg 197 82 args;
#X obj 165 57 t b b;
#X obj 197 132 list split 2, f 16;
#X obj 197 182 s \$0-arg;
#X obj 251 207 list;
#X obj 311 32 r \$0-arg;
#X obj 325 132 s \$0-size;
#X obj 197 157 list trim;
#X obj 311 57 t b a;
#X obj 325 107 35;
#X obj 306 157 t b;
#X obj 306 182 s \$0-arg;
#X obj 165 207 s \$0-update;
#X obj 398 107 symbol default;
#X obj 398 157 s \$0-label;
#N canvas 466 402 450 300 \$0-graphics 0;
#X obj 2 2 cnv 15 36 15 empty empty Attack -3 7 0 12 -262144 -1 0;
#X obj 2 55 cnv 15 36 15 empty \$0-valuecnv empty 2 7 0 12 -262144
-1 0;
#X coords 0 0 1 1 36 68 2 2 2;
#X restore 32 32 pd \$0-graphics;
#X obj 165 275 r \$0-size;
#X obj 165 250 namecanvas \$0-knob;
#X obj 165 405 s \$0-knob;
#X obj 324 380 s pd-\$0-graphics;
#X obj 165 325 pack f f;
#X msg 165 350 donecanvasdialog 1 1 2 0 0 1 1 \$1 \$2 32 32 \, dirty
0, f 20;
#X obj 324 250 r \$0-size;
#X obj 324 300 pack f f;
#X msg 324 325 donecanvasdialog 1 1 2 0 0 1 1 \$1 \$2 2 2 \, dirty
0, f 20;
#X obj 218 300 + 33;
#X obj 377 275 + 33;
#X obj 165 300 + 1;
#X obj 324 275 + 1;
#X obj 343 82 route size label back front, f 32;
#X obj 435 132 0;
#X obj 435 182 s \$0-back;
#X obj 490 132 -1;
#X obj 490 157 s \$0-front;
#X obj 165 478 r \$0-size;
#X obj 208 453 r \$0-label;
#X obj 251 478 r \$0-back;
#X obj 295 453 r \$0-front;
#N canvas 0 94 1280 930 dynamic-graphics 0;
#X obj 2 42 + 1;
#X obj 155 117 t b b;
#X msg 199 117 clear;
#X obj 2 67 t b f;
#X obj 90 42 t b f;
#X obj 134 42 t b f;
#X obj 2 2 inlet size, f 5;
#X obj 46 2 inlet label, f 5;
#X obj 90 2 inlet back, f 5;
#X obj 134 2 inlet front, f 5;
#X obj 34 192 outlet messages, f 8;
#X obj 143 93 + 19;
#X obj 34 117 pack f s f f f f;
#X obj 46 42 t b a;
#X msg 34 142 obj 2 2 cnv 15 \$1 15 empty empty \$2 \$3 7 0 12 \$4
\$5;
#N canvas 0 94 450 300 text-centering 0;
#X obj 2 117 * 7;
#X obj 32 117 / 2;
#X obj 32 142 t b f;
#X obj 16 167 / 2;
#X obj 46 167 -;
#X obj 2 92 list length;
#X obj 2 67 list fromsymbol;
#X obj 2 2 inlet symbol, f 6;
#X obj 53 2 inlet width, f 5;
#X obj 2 42 symbol;
#X obj 53 42 t b f;
#X obj 46 192 outlet x coordinate, f 10;
#X connect 0 0 1 0;
#X connect 1 0 2 0;
#X connect 2 0 4 0;
#X connect 2 1 4 1;
#X connect 3 0 4 0;
#X connect 4 0 11 0;
#X connect 5 0 0 0;
#X connect 6 0 5 0;
#X connect 7 0 9 0;
#X connect 8 0 10 0;
#X connect 9 0 6 0;
#X connect 10 0 9 0;
#X connect 10 1 3 0;
#X restore 78 67 pd text-centering;
#X obj 78 92 t b f;
#X msg 34 167 obj 2 \$6 cnv 15 \$1 15 empty \\\$0-valuecnv empty 2
7 0 12 \$4 \$5, f 61;
#X connect 0 0 3 0;
#X connect 1 0 12 0;
#X connect 1 1 2 0;
#X connect 2 0 10 0;
#X connect 3 1 12 0;
#X connect 3 1 11 0;
#X connect 3 1 15 1;
#X connect 4 0 1 0;
#X connect 4 1 12 3;
#X connect 5 0 1 0;
#X connect 5 1 12 4;
#X connect 6 0 0 0;
#X connect 7 0 13 0;
#X connect 8 0 4 0;
#X connect 9 0 5 0;
#X connect 11 0 12 5;
#X connect 12 0 14 0;
#X connect 12 0 17 0;
#X connect 13 0 1 0;
#X connect 13 1 12 1;
#X connect 13 1 15 0;
#X connect 14 0 10 0;
#X connect 15 0 16 0;
#X connect 16 0 1 0;
#X connect 16 1 12 2;
#X connect 17 0 10 0;
#X restore 165 503 pd dynamic-graphics;
#X obj 165 528 s pd-\$0-graphics;
#X text 164 229 Resize GOPs.;
#X text 164 11 Accept arguments on creation.;
#X text 164 429 Dynamically create canvases.;
#X obj 484 249 inlet;
#X obj 484 374 list fromsymbol;
#X obj 484 449 list split 2;
#X obj 565 399 list length;
#X obj 565 424 - 1;
#X obj 484 474 list tosymbol;
#X obj 542 499 symbol \$0-valuecnv;
#X msg 484 349 symbol \$1^;
#X obj 484 524 pack s s f, f 13;
#N canvas 0 94 450 300 text-centering 0;
#X obj 2 117 * 7;
#X obj 32 117 / 2;
#X obj 32 142 t b f;
#X obj 16 167 / 2;
#X obj 46 167 -;
#X obj 2 92 list length;
#X obj 2 67 list fromsymbol;
#X obj 2 2 inlet symbol, f 6;
#X obj 53 2 inlet width, f 5;
#X obj 2 42 symbol;
#X obj 53 42 t b f;
#X obj 46 192 outlet x coordinate, f 10;
#X connect 0 0 1 0;
#X connect 1 0 2 0;
#X connect 2 0 4 0;
#X connect 2 1 4 1;
#X connect 3 0 4 0;
#X connect 4 0 11 0;
#X connect 5 0 0 0;
#X connect 6 0 5 0;
#X connect 7 0 9 0;
#X connect 8 0 10 0;
#X connect 9 0 6 0;
#X connect 10 0 9 0;
#X connect 10 1 3 0;
#X restore 584 474 pd text-centering;
#X obj 700 449 r \$0-size;
#X msg 484 549 \; \$2 label \$1 \; \$2 label_pos \$3 7;
#X obj 484 274 * 100;
#X obj 484 299 int;
#X obj 484 324 / 100;
#X obj 484 499 t a a b;
#X obj 484 399 t l l;
#X text 482 229 Accept inlet values and display them.;
#X connect 0 0 3 0;
#X connect 1 0 4 0;
#X connect 2 0 1 0;
#X connect 3 0 14 0;
#X connect 3 1 2 0;
#X connect 4 0 9 0;
#X connect 4 1 6 0;
#X connect 4 2 12 0;
#X connect 6 0 4 0;
#X connect 7 0 10 0;
#X connect 9 0 5 0;
#X connect 10 0 11 0;
#X connect 10 0 15 0;
#X connect 10 0 32 0;
#X connect 10 0 34 0;
#X connect 10 1 31 0;
#X connect 11 0 8 0;
#X connect 12 0 13 0;
#X connect 15 0 16 0;
#X connect 18 0 27 0;
#X connect 18 0 29 0;
#X connect 22 0 23 0;
#X connect 23 0 20 0;
#X connect 24 0 28 0;
#X connect 24 0 30 0;
#X connect 25 0 26 0;
#X connect 26 0 21 0;
#X connect 27 0 22 1;
#X connect 28 0 25 1;
#X connect 29 0 22 0;
#X connect 30 0 25 0;
#X connect 31 0 11 1;
#X connect 31 1 15 0;
#X connect 31 2 32 1;
#X connect 31 3 34 1;
#X connect 32 0 33 0;
#X connect 34 0 35 0;
#X connect 36 0 40 0;
#X connect 37 0 40 1;
#X connect 38 0 40 2;
#X connect 39 0 40 3;
#X connect 40 0 41 0;
#X connect 45 0 57 0;
#X connect 46 0 61 0;
#X connect 47 0 50 0;
#X connect 48 0 49 0;
#X connect 49 0 47 1;
#X connect 50 0 60 0;
#X connect 51 0 53 1;
#X connect 52 0 46 0;
#X connect 53 0 56 0;
#X connect 54 0 53 2;
#X connect 55 0 54 1;
#X connect 57 0 58 0;
#X connect 58 0 59 0;
#X connect 59 0 52 0;
#X connect 60 0 53 0;
#X connect 60 1 54 0;
#X connect 60 2 51 0;
#X connect 61 0 47 0;
#X connect 61 1 48 0;
#X coords 0 0 1 1 128 68 2 32 32;
