#N struct 1054-knob float value float px1 float px2 float py1 float
py2 float lv float lx float l;
#N canvas 0 94 1280 930 12;
#N canvas 552 217 457 679 \$0-template 0;
#X obj 2 2 struct \$0-knob float value float px1 float px2 float py1
float py2 float lv float lx float l;
#X obj 2 42 s \$0-event;
#X obj 2 167 drawnumber value 2.5 0 0 77777;
#X obj 2 192 drawnumber value 2.5 16 0 77777;
#X obj 2 217 drawnumber value 2.5 32 0 77777;
#X obj 2 242 drawnumber value 2.5 45 0 77777;
#X obj 2 67 filledpolygon 999 999 0 0 0 61 0 61 61 0 61 0 0;
#X obj 2 142 drawnumber -v l lv lx -15 0 Attack ;
#X obj 2 92 drawpolygon 0 61 30 30 31 30 31 31 30 31 30 30;
#X obj 2 117 drawpolygon 905 5 px1 py1 px2 py1 px2 py2 px1 py2 px1
py1;
#X connect 0 0 1 0;
#X restore 32 7 pd \$0-template;
#X obj 832 393 unpack s p f f;
#X obj 817 518 get \$0-knob value;
#X obj 817 543 clip 100 400;
#X obj 817 568 set \$0-knob value;
#X obj 832 368 r \$0-event;
#X obj 947 568 r \$0-size;
#X obj 817 618 set \$0-knob px1;
#X obj 860 643 set \$0-knob px2;
#X obj 903 668 set \$0-knob py1;
#X obj 947 618 set \$0-knob py2;
#N canvas 0 94 1280 930 dial-coordinates 0;
#X obj 2 141 * 270;
#X obj 2 166 + 225;
#X obj 2 191 / 360;
#X obj 2 216 * 6.28319;
#X obj 2 241 sin;
#X obj 104 241 cos;
#X obj 104 266 * -1;
#X obj 2 2 inlet 0 to 1, f 6;
#X obj 53 2 inlet size, f 5;
#X obj 2 316 - 1;
#X obj 2 406 outlet px1, f 6;
#X obj 53 406 outlet px2, f 6;
#X obj 104 341 - 1;
#X obj 104 366 outlet py1, f 6;
#X obj 155 366 outlet py2, f 6;
#X obj 2 116 util/scale 100 400 0 1;
#X obj 104 316 util/scale -1 1 6 1;
#X obj 2 291 util/scale -1 1 6 1;
#X obj 146 66 -;
#X obj 53 41 t f f;
#X obj 53 91 + 2;
#N canvas 0 94 450 300 dial-size 0;
#X obj 2 2 inlet;
#X obj 2 27 / 12;
#X obj 39 27 + 0.5;
#X obj 39 52 i;
#X obj 83 77 mod 2;
#X obj 127 127 f;
#X obj 159 127 f;
#X obj 159 152 - 1;
#X obj 127 102 t b;
#X obj 159 102 t b;
#X obj 39 77 t f f;
#X obj 127 77 sel 1;
#X obj 127 177 max 5;
#X obj 127 202 outlet;
#X connect 0 0 1 0;
#X connect 1 0 2 0;
#X connect 2 0 3 0;
#X connect 3 0 10 0;
#X connect 4 0 11 0;
#X connect 5 0 12 0;
#X connect 6 0 7 0;
#X connect 7 0 12 0;
#X connect 8 0 5 0;
#X connect 9 0 6 0;
#X connect 10 0 4 0;
#X connect 10 1 5 1;
#X connect 10 1 6 1;
#X connect 11 0 8 0;
#X connect 11 1 9 0;
#X connect 12 0 13 0;
#X restore 53 66 pd dial-size;
#X connect 0 0 1 0;
#X connect 1 0 2 0;
#X connect 2 0 3 0;
#X connect 3 0 4 0;
#X connect 3 0 5 0;
#X connect 4 0 17 0;
#X connect 5 0 6 0;
#X connect 6 0 16 0;
#X connect 7 0 15 0;
#X connect 8 0 19 0;
#X connect 9 0 10 0;
#X connect 12 0 13 0;
#X connect 15 0 0 0;
#X connect 16 0 12 0;
#X connect 16 0 14 0;
#X connect 17 0 9 0;
#X connect 17 0 11 0;
#X connect 18 0 17 4;
#X connect 18 0 16 4;
#X connect 19 0 18 0;
#X connect 19 1 21 0;
#X connect 20 0 18 1;
#X connect 20 0 17 3;
#X connect 20 0 16 3;
#X connect 21 0 20 0;
#X restore 817 593 pd dial-coordinates;
#X msg 346 581 clear;
#X obj 346 606 s pd-\$0-graphics;
#X msg 323 655 traverse \$1 \, bang;
#X obj 323 630 symbol pd-\$0-graphics;
#X obj 300 556 t b b b;
#X obj 323 680 pointer;
#X obj 300 531 r \$0-update;
#N canvas 0 94 1280 930 dial-coordinates 0;
#X obj 2 141 * 270;
#X obj 2 166 + 225;
#X obj 2 191 / 360;
#X obj 2 216 * 6.28319;
#X obj 2 241 sin;
#X obj 104 241 cos;
#X obj 104 266 * -1;
#X obj 2 2 inlet 0 to 1, f 6;
#X obj 53 2 inlet size, f 5;
#X obj 2 316 - 1;
#X obj 2 406 outlet px1, f 6;
#X obj 53 406 outlet px2, f 6;
#X obj 104 341 - 1;
#X obj 104 366 outlet py1, f 6;
#X obj 155 366 outlet py2, f 6;
#X obj 2 116 util/scale 100 400 0 1;
#X obj 104 316 util/scale -1 1 6 1;
#X obj 2 291 util/scale -1 1 6 1;
#X obj 146 66 -;
#X obj 53 41 t f f;
#X obj 53 91 + 2;
#N canvas 0 94 450 300 dial-size 0;
#X obj 2 2 inlet;
#X obj 2 27 / 12;
#X obj 39 27 + 0.5;
#X obj 39 52 i;
#X obj 83 77 mod 2;
#X obj 127 127 f;
#X obj 159 127 f;
#X obj 159 152 - 1;
#X obj 127 102 t b;
#X obj 159 102 t b;
#X obj 39 77 t f f;
#X obj 127 77 sel 1;
#X obj 127 177 max 5;
#X obj 127 202 outlet;
#X connect 0 0 1 0;
#X connect 1 0 2 0;
#X connect 2 0 3 0;
#X connect 3 0 10 0;
#X connect 4 0 11 0;
#X connect 5 0 12 0;
#X connect 6 0 7 0;
#X connect 7 0 12 0;
#X connect 8 0 5 0;
#X connect 9 0 6 0;
#X connect 10 0 4 0;
#X connect 10 1 5 1;
#X connect 10 1 6 1;
#X connect 11 0 8 0;
#X connect 11 1 9 0;
#X connect 12 0 13 0;
#X restore 53 66 pd dial-size;
#X connect 0 0 1 0;
#X connect 1 0 2 0;
#X connect 2 0 3 0;
#X connect 3 0 4 0;
#X connect 3 0 5 0;
#X connect 4 0 17 0;
#X connect 5 0 6 0;
#X connect 6 0 16 0;
#X connect 7 0 15 0;
#X connect 8 0 19 0;
#X connect 9 0 10 0;
#X connect 12 0 13 0;
#X connect 15 0 0 0;
#X connect 16 0 12 0;
#X connect 16 0 14 0;
#X connect 17 0 9 0;
#X connect 17 0 11 0;
#X connect 18 0 17 4;
#X connect 18 0 16 4;
#X connect 19 0 18 0;
#X connect 19 1 21 0;
#X connect 20 0 18 1;
#X connect 20 0 17 3;
#X connect 20 0 16 3;
#X connect 21 0 20 0;
#X restore 64 680 pd dial-coordinates;
#X obj 194 655 r \$0-size;
#X obj 32 655 t f f;
#X obj 946 183 r \$0-size;
#N canvas 717 666 450 300 circle-stuff 0;
#X obj 2 2 inlet size, f 5;
#X obj 32 42 / 2;
#X obj 62 42 + 1;
#X obj 2 67 outlet max range, f 3;
#X obj 32 92 outlet n1, f 3;
#X obj 62 92 outlet n2, f 3;
#X obj 32 67 i;
#X obj 62 67 i;
#X obj 2 42 - 1;
#X connect 0 0 8 0;
#X connect 1 0 2 0;
#X connect 1 0 6 0;
#X connect 2 0 7 0;
#X connect 6 0 4 0;
#X connect 7 0 5 0;
#X connect 8 0 3 0;
#X connect 8 0 1 0;
#X restore 934 208 pd circle-stuff;
#X obj 934 233 s \$0-maxrange;
#X obj 628 208 r \$0-size;
#X obj 628 183 namecanvas \$0-knob;
#X obj 628 288 s \$0-knob;
#X obj 787 313 s pd-\$0-graphics;
#X obj 787 233 pack f f;
#X msg 628 233 donecanvasdialog 1 1 2 0 0 1 1 \$1 \$1 32 32 \, dirty
0, f 20;
#X obj 787 183 r \$0-maxrange;
#X obj 840 208 r \$0-size;
#X msg 787 258 donecanvasdialog 1 1 2 0 0 \$1 \$1 \$2 \$2 2 2 \, dirty
0, f 20;
#N canvas 227 215 960 680 dynamic-graphics 0;
#X obj 46 2 inlet n1, f 5;
#X obj 90 2 inlet n2, f 5;
#X obj 25 117 t b b b;
#X msg 25 192 connect 0 0 1 0;
#X obj 309 28 outlet;
#X obj 309 2 r \$0-msg;
#X obj 25 217 s \$0-msg;
#X obj 2 2 inlet size, f 5;
#X obj 2 67 t b b b;
#X msg 60 67 clear;
#X obj 60 92 s \$0-msg;
#X obj 46 42 t b f;
#X obj 90 42 t b f;
#X obj 2 417 s \$0-msg;
#X obj 2 242 t b b b;
#X obj 2 42 t b f;
#N canvas 0 94 1280 930 dynamic-scalars 0;
#X obj 2 52 / 16;
#X obj 2 127 until;
#X obj 2 102 i;
#X obj 2 152 0, f 2;
#X obj 25 152 + 1;
#X obj 2 202 * 16;
#X obj 39 202 * 25;
#X obj 2 177 t f f;
#X obj 2 77 t f b;
#X obj 34 102 0, f 1;
#X obj 65 27 i;
#X obj 65 52 ==;
#X obj 65 77 sel 0;
#X obj 65 127 f;
#X obj 65 102 t b;
#X obj 2 2 inlet;
#X obj 65 152 t f f;
#X obj 2 400 outlet;
#X obj 102 177 / 16;
#X obj 102 202 i;
#X obj 65 177 - 16;
#X msg 209 227 adddollar 2;
#X msg 226 202 add2 obj 2;
#X msg 141 202 add2 0;
#X msg 255 177 set;
#N canvas 0 94 1280 930 horizontal-padding 0;
#X obj 20 27 / 7;
#X obj 20 52 - 3;
#X obj 2 77 i;
#X obj 2 127 until;
#X obj 2 152 f;
#X obj 32 152 + 1;
#X obj 32 177 mod;
#X obj 46 127 sel 0;
#X obj 2 102 t b f b;
#X msg 32 202 add2 55;
#X msg 32 227 55 55 55 55 55;
#X msg 95 202 set;
#X obj 32 252 list tosymbol;
#X obj 20 2 inlet;
#X obj 32 277 outlet;
#X obj 50 27 >= 0;
#X obj 50 52 sel 1;
#X obj 50 77 t b;
#X connect 0 0 1 0;
#X connect 1 0 2 1;
#X connect 1 0 15 0;
#X connect 2 0 8 0;
#X connect 3 0 4 0;
#X connect 4 0 5 0;
#X connect 5 0 6 0;
#X connect 6 0 4 1;
#X connect 6 0 9 0;
#X connect 6 0 7 0;
#X connect 7 0 3 1;
#X connect 7 0 10 0;
#X connect 8 0 3 0;
#X connect 8 1 6 1;
#X connect 8 2 11 0;
#X connect 9 0 10 0;
#X connect 10 0 12 0;
#X connect 11 0 10 0;
#X connect 12 0 14 0;
#X connect 13 0 0 0;
#X connect 15 0 16 0;
#X connect 16 0 17 0;
#X connect 17 0 2 0;
#X restore 109 127 pd horizontal-padding;
#X msg 109 152 add2 \$1;
#X obj 109 102 t f b;
#X obj 2 27 f;
#X obj 2 350 pack f f f;
#X msg 192 252 add2 drawnumber value;
#X msg 2 375 obj 2 \$2 drawnumber value \$3 \$1 0 77777;
#X msg 175 277 adddollar 3;
#X obj 141 177 t b b b b b b b;
#X msg 158 302 adddollar 1;
#X obj 99 250 / 7;
#X obj 99 275 i;
#X obj 69 275 -;
#X obj 69 300 * 7;
#X obj 69 325 / 2;
#X obj 39 227 + 167;
#X connect 0 0 8 0;
#X connect 0 0 10 0;
#X connect 0 0 11 1;
#X connect 1 0 3 0;
#X connect 2 0 1 0;
#X connect 3 0 4 0;
#X connect 3 0 7 0;
#X connect 4 0 3 1;
#X connect 5 0 29 0;
#X connect 6 0 40 0;
#X connect 7 0 5 0;
#X connect 7 1 6 0;
#X connect 8 0 2 0;
#X connect 8 1 9 0;
#X connect 9 0 3 1;
#X connect 10 0 11 0;
#X connect 11 0 12 0;
#X connect 12 0 14 0;
#X connect 13 0 16 0;
#X connect 14 0 13 0;
#X connect 15 0 28 0;
#X connect 16 0 20 0;
#X connect 16 1 18 0;
#X connect 18 0 19 0;
#X connect 19 0 6 0;
#X connect 20 0 29 0;
#X connect 21 0 31 0;
#X connect 22 0 31 0;
#X connect 23 0 31 0;
#X connect 24 0 31 0;
#X connect 25 0 26 0;
#X connect 26 0 31 0;
#X connect 27 0 25 0;
#X connect 27 1 33 0;
#X connect 28 0 0 0;
#X connect 28 0 13 1;
#X connect 28 0 27 0;
#X connect 28 0 35 0;
#X connect 29 0 31 0;
#X connect 30 0 31 0;
#X connect 31 0 17 0;
#X connect 32 0 31 0;
#X connect 33 0 23 0;
#X connect 33 1 34 0;
#X connect 33 2 32 0;
#X connect 33 3 30 0;
#X connect 33 4 21 0;
#X connect 33 5 22 0;
#X connect 33 6 24 0;
#X connect 34 0 31 0;
#X connect 35 0 36 0;
#X connect 35 0 37 0;
#X connect 36 0 37 1;
#X connect 37 0 38 0;
#X connect 38 0 39 0;
#X connect 39 0 29 2;
#X connect 40 0 29 1;
#X restore 60 242 pd dynamic-scalars;
#N canvas 0 94 450 300 dial-size 0;
#X obj 2 2 inlet;
#X obj 2 27 / 12;
#X obj 39 27 + 0.5;
#X obj 39 52 i;
#X obj 83 77 mod 2;
#X obj 127 127 f;
#X obj 159 127 f;
#X obj 159 152 - 1;
#X obj 127 102 t b;
#X obj 159 102 t b;
#X obj 39 77 t f f;
#X obj 127 77 sel 1;
#X obj 127 177 max 5;
#X obj 127 202 outlet;
#X connect 0 0 1 0;
#X connect 1 0 2 0;
#X connect 2 0 3 0;
#X connect 3 0 10 0;
#X connect 4 0 11 0;
#X connect 5 0 12 0;
#X connect 6 0 7 0;
#X connect 7 0 12 0;
#X connect 8 0 5 0;
#X connect 9 0 6 0;
#X connect 10 0 4 0;
#X connect 10 1 5 1;
#X connect 10 1 6 1;
#X connect 11 0 8 0;
#X connect 11 1 9 0;
#X connect 12 0 13 0;
#X restore 95 317 pd dial-size;
#X obj 134 42 t b f;
#X obj 177 42 t b f;
#X obj 221 42 t b f;
#X obj 134 2 inlet drop, f 5;
#X obj 177 2 inlet back, f 5;
#X obj 221 2 inlet front, f 5;
#X obj 25 267 pack f f;
#X obj 2 367 pack f f f f;
#X obj 95 342 pack f f;
#X msg 48 167 obj 2 42 s \\\$0-event;
#X msg 25 292 obj 2 67 filledpolygon \$2 \$2 0 0 0 \$1 0 \$1 \$1 0
\$1 0 0;
#X msg 2 392 obj 2 92 drawpolygon \$4 \$1 \$2 \$2 \$3 \$2 \$3 \$3 \$2
\$3 \$2 \$2;
#X msg 95 367 obj 2 117 drawpolygon \$2 \$1 px1 py1 px2 py1 px2 py2
px1 py2 px1 py1, f 68;
#X obj 2 317 t b b b;
#X obj 265 2 inlet label, f 5;
#X obj 265 42 t b a;
#X msg 71 142 obj 2 2 struct \\\$0-knob float value float px1 float
px2 float py1 float py2 float lv float lx float l, f 101;
#X msg 188 342 obj 2 142 drawnumber -v l lv lx -15 \$1 \$2;
#X obj 188 317 pack f s;
#X connect 0 0 11 0;
#X connect 1 0 12 0;
#X connect 2 0 3 0;
#X connect 2 1 27 0;
#X connect 2 2 34 0;
#X connect 3 0 6 0;
#X connect 5 0 4 0;
#X connect 7 0 15 0;
#X connect 8 0 14 0;
#X connect 8 1 2 0;
#X connect 8 2 9 0;
#X connect 9 0 10 0;
#X connect 11 0 8 0;
#X connect 11 1 25 1;
#X connect 12 0 8 0;
#X connect 12 1 25 2;
#X connect 14 0 31 0;
#X connect 14 1 24 0;
#X connect 14 2 16 0;
#X connect 15 0 8 0;
#X connect 15 1 16 0;
#X connect 15 1 17 0;
#X connect 15 1 24 0;
#X connect 15 1 25 0;
#X connect 16 0 13 0;
#X connect 17 0 26 0;
#X connect 18 0 8 0;
#X connect 18 1 24 1;
#X connect 19 0 8 0;
#X connect 19 1 25 3;
#X connect 19 1 36 0;
#X connect 20 0 8 0;
#X connect 20 1 26 1;
#X connect 21 0 18 0;
#X connect 22 0 19 0;
#X connect 23 0 20 0;
#X connect 24 0 28 0;
#X connect 25 0 29 0;
#X connect 26 0 30 0;
#X connect 27 0 6 0;
#X connect 28 0 13 0;
#X connect 29 0 13 0;
#X connect 30 0 13 0;
#X connect 31 0 26 0;
#X connect 31 1 25 0;
#X connect 31 2 36 0;
#X connect 32 0 33 0;
#X connect 33 0 8 0;
#X connect 33 1 36 1;
#X connect 34 0 6 0;
#X connect 35 0 13 0;
#X connect 36 0 35 0;
#X restore 946 258 pd dynamic-graphics;
#X f 28;
#X obj 946 282 s pd-\$0-template;
#X obj 31 184 loadbang;
#X obj 63 259 pdcontrol;
#X msg 63 234 args;
#X obj 31 209 t b b;
#X obj 63 284 list split 2, f 16;
#X obj 63 334 s \$0-arg;
#X obj 117 359 list;
#X obj 178 184 r \$0-arg;
#X obj 191 284 s \$0-size;
#X obj 274 284 s \$0-back;
#X obj 315 334 s \$0-front;
#X obj 63 309 list trim;
#X obj 178 209 t b a;
#X obj 357 284 s \$0-min;
#X obj 399 309 s \$0-max;
#X obj 191 259 35;
#X obj 232 259 999;
#X obj 274 259 0;
#X obj 315 259 999;
#X obj 357 259 0;
#X obj 399 259 1;
#X obj 172 309 t b;
#X obj 172 334 s \$0-arg;
#X obj 31 359 s \$0-update;
#X obj 232 309 s \$0-drop;
#X text 30 163 Accept arguments on creation;
#X text 627 163 Resize GOPs and dynamically create the graphics.;
#X text 29 383 Initialize the struct;
#X text 630 347 Accept events from the struct and move the dial.;
#N canvas 0 94 1280 930 \$0-graphics 0;
#X scalar 1054-knob 250 29.5001 30.5001 6 7 0 2.5 0 \;;
#X coords 0 0 60 60 61 61 2 2 2;
#X restore 32 32 pd \$0-graphics;
#X obj 1042 233 r \$0-drop;
#X obj 1074 208 r \$0-back;
#X obj 1106 183 r \$0-front;
#X obj 930 718 r \$0-min;
#X obj 968 693 r \$0-max;
#X obj 817 768 outlet;
#X obj 463 259 r \$0-min;
#X obj 512 284 r \$0-max;
#X obj 50 555 r \$0-default;
#X obj 458 359 s \$0-default;
#X obj 689 593 set \$0-knob value;
#N canvas 0 94 450 300 double-click 0;
#X obj 2 117 f 0;
#X obj 32 117 + 1;
#X obj 62 117 mod 2;
#X obj 62 142 sel 0;
#X obj 20 67 del 200;
#X msg 20 92 0, f 1;
#X obj 2 42 bang;
#X obj 2 2 inlet bang, f 5;
#X obj 62 192 outlet;
#X msg 62 167 bang;
#X connect 0 0 1 0;
#X connect 1 0 0 1;
#X connect 1 0 2 0;
#X connect 2 0 3 0;
#X connect 3 0 9 0;
#X connect 4 0 5 0;
#X connect 5 0 0 1;
#X connect 6 0 0 0;
#X connect 6 0 4 0;
#X connect 7 0 6 0;
#X connect 9 0 8 0;
#X restore 689 493 pd double-click;
#X obj 707 518 r \$0-default;
#X obj 32 580 f;
#X obj 832 418 sel click change;
#X obj 863 443 pointer;
#X obj 832 443 t b;
#X obj 463 284 t b f;
#X obj 512 309 t b f;
#X obj 689 568 i;
#X obj 32 630 i;
#X obj 69 480 r \$0-min;
#X obj 106 455 r \$0-max;
#X obj 32 405 inlet;
#X obj 32 430 t b f;
#X obj 76 430 s \$0-update;
#X obj 32 505 clip, f 11;
#X obj 1139 233 r \$0-label;
#X obj 689 543 f;
#X obj 458 334 util/scale 0 1 100 400;
#X obj 32 530 util/scale 0 1 100 400;
#X obj 817 743 util/scale 100 400 0 1;
#X obj 209 234 route size drop back front min max default label;
#X obj 500 409 s \$0-label;
#X obj 692 793 set \$0-knob lv;
#N canvas 637 94 640 930 text-centering 0;
#X obj 2 117 * 7;
#X obj 32 117 / 2;
#X obj 32 142 t b f;
#X obj 16 167 / 2;
#X obj 46 167 -;
#X obj 265 2 inlet width, f 5;
#X obj 2 42 symbol;
#X obj 265 42 t b f;
#X obj 46 192 outlet x coordinate, f 10;
#X obj 2 2 inlet label, f 6;
#X obj 123 2 inlet number, f 6;
#N canvas 803 644 450 300 number-to-symbol 0;
#X obj 2 67 list fromsymbol;
#X obj 2 142 list split 2;
#X obj 83 92 list length;
#X obj 83 117 - 1;
#X msg 2 42 symbol \$1^;
#X obj 2 92 t l l;
#X obj 2 2 inlet number, f 6;
#X obj 2 192 outlet symbol, f 6;
#X obj 2 167 list tosymbol;
#X connect 0 0 5 0;
#X connect 1 0 8 0;
#X connect 2 0 3 0;
#X connect 3 0 1 1;
#X connect 4 0 0 0;
#X connect 5 0 1 0;
#X connect 5 1 2 0;
#X connect 6 0 4 0;
#X connect 8 0 7 0;
#X restore 123 42 pd number-to-symbol;
#N canvas 0 94 450 300 symbol-length 0;
#X obj 2 67 list length;
#X obj 2 42 list fromsymbol;
#X obj 2 2 inlet symbol, f 6;
#X obj 2 92 outlet length, f 6;
#X connect 0 0 3 0;
#X connect 1 0 0 0;
#X connect 2 0 1 0;
#X restore 2 67 pd symbol-length;
#N canvas 741 418 450 300 symbol-length 0;
#X obj 2 67 list length;
#X obj 2 42 list fromsymbol;
#X obj 2 2 inlet symbol, f 6;
#X obj 2 92 outlet length, f 6;
#X connect 0 0 3 0;
#X connect 1 0 0 0;
#X connect 2 0 1 0;
#X restore 123 92 pd symbol-length;
#X obj 123 117 t b f;
#X obj 2 92 +;
#X obj 123 67 symbol;
#X connect 0 0 1 0;
#X connect 1 0 2 0;
#X connect 2 0 4 0;
#X connect 2 1 4 1;
#X connect 3 0 4 0;
#X connect 4 0 8 0;
#X connect 5 0 7 0;
#X connect 6 0 12 0;
#X connect 7 0 6 0;
#X connect 7 0 16 0;
#X connect 7 1 3 0;
#X connect 9 0 6 0;
#X connect 10 0 11 0;
#X connect 11 0 16 0;
#X connect 12 0 15 0;
#X connect 13 0 14 0;
#X connect 14 0 6 0;
#X connect 14 1 15 1;
#X connect 15 0 0 0;
#X connect 16 0 13 0;
#X restore 582 668 pd text-centering;
#X obj 582 643 r \$0-label;
#X obj 698 643 r \$0-size;
#X obj 564 718 set \$0-knob lx;
#X obj 710 668 * 100;
#X obj 710 693 int;
#X obj 710 718 / 100;
#X obj 32 730 append \$0-knob value px1 px2 py1 py2 lv lx;
#X obj 32 705 pack f f f f f f f, f 28;
#X obj 32 605 t f f;
#X obj 564 693 f;
#X obj 627 693 t b p;
#X obj 921 493 set \$0-knob l;
#X obj 921 468 1, f 1;
#X obj 977 468 t b p;
#X obj 937 468 0, f 1;
#X obj 500 384 symbol value=;
#X obj 692 768 f;
#X obj 755 768 t b p;
#X obj 719 543 t b f;
#X obj 710 743 t f f;
#X obj 627 618 t p p;
#X obj 937 443 del 750;
#X connect 1 0 80 0;
#X connect 1 1 81 0;
#X connect 2 0 3 0;
#X connect 3 0 4 0;
#X connect 3 0 11 0;
#X connect 3 0 97 0;
#X connect 5 0 1 0;
#X connect 6 0 11 1;
#X connect 11 0 7 0;
#X connect 11 1 8 0;
#X connect 11 2 9 0;
#X connect 11 3 10 0;
#X connect 12 0 13 0;
#X connect 14 0 17 0;
#X connect 15 0 14 0;
#X connect 16 0 79 0;
#X connect 16 1 15 0;
#X connect 16 2 12 0;
#X connect 17 0 108 7;
#X connect 18 0 16 0;
#X connect 19 0 109 1;
#X connect 19 1 109 2;
#X connect 19 2 109 3;
#X connect 19 3 109 4;
#X connect 20 0 19 1;
#X connect 21 0 109 0;
#X connect 21 1 19 0;
#X connect 22 0 23 0;
#X connect 22 0 34 0;
#X connect 23 0 24 0;
#X connect 23 1 34 1;
#X connect 23 2 34 2;
#X connect 25 0 30 0;
#X connect 29 0 33 0;
#X connect 30 0 27 0;
#X connect 31 0 29 0;
#X connect 32 0 29 1;
#X connect 33 0 28 0;
#X connect 34 0 35 0;
#X connect 36 0 39 0;
#X connect 37 0 40 0;
#X connect 38 0 37 0;
#X connect 39 0 59 0;
#X connect 39 1 38 0;
#X connect 40 0 47 0;
#X connect 40 1 42 0;
#X connect 40 2 57 0;
#X connect 42 0 40 0;
#X connect 43 0 48 0;
#X connect 47 0 41 0;
#X connect 48 0 51 0;
#X connect 48 0 52 0;
#X connect 48 0 53 0;
#X connect 48 0 54 0;
#X connect 48 0 55 0;
#X connect 48 0 56 0;
#X connect 48 0 95 0;
#X connect 48 0 117 0;
#X connect 48 1 98 0;
#X connect 51 0 44 0;
#X connect 52 0 60 0;
#X connect 53 0 45 0;
#X connect 54 0 46 0;
#X connect 55 0 49 0;
#X connect 56 0 50 0;
#X connect 57 0 58 0;
#X connect 66 0 34 3;
#X connect 67 0 34 4;
#X connect 68 0 34 5;
#X connect 69 0 97 3;
#X connect 70 0 97 4;
#X connect 72 0 83 0;
#X connect 73 0 84 0;
#X connect 74 0 79 1;
#X connect 77 0 94 0;
#X connect 78 0 94 1;
#X connect 79 0 110 0;
#X connect 79 0 97 0;
#X connect 80 0 82 0;
#X connect 81 0 4 1;
#X connect 81 0 10 1;
#X connect 81 0 7 1;
#X connect 81 0 8 1;
#X connect 81 0 9 1;
#X connect 81 0 115 0;
#X connect 81 0 2 0;
#X connect 81 0 76 1;
#X connect 81 0 122 0;
#X connect 82 0 77 0;
#X connect 83 0 95 0;
#X connect 83 1 95 1;
#X connect 84 0 95 0;
#X connect 84 1 95 2;
#X connect 85 0 76 0;
#X connect 86 0 21 0;
#X connect 87 0 92 1;
#X connect 87 0 96 1;
#X connect 88 0 92 2;
#X connect 88 0 96 2;
#X connect 89 0 90 0;
#X connect 90 0 91 0;
#X connect 90 1 92 0;
#X connect 92 0 96 0;
#X connect 93 0 34 6;
#X connect 94 0 85 0;
#X connect 94 0 120 0;
#X connect 95 0 75 0;
#X connect 96 0 79 0;
#X connect 97 0 71 0;
#X connect 97 0 105 0;
#X connect 98 0 51 1;
#X connect 98 1 52 1;
#X connect 98 2 53 1;
#X connect 98 3 54 1;
#X connect 98 4 55 1;
#X connect 98 5 56 1;
#X connect 98 6 95 0;
#X connect 98 7 117 0;
#X connect 101 0 111 1;
#X connect 102 0 101 0;
#X connect 103 0 101 2;
#X connect 105 0 106 0;
#X connect 106 0 107 0;
#X connect 107 0 121 0;
#X connect 109 0 108 0;
#X connect 110 0 86 0;
#X connect 111 0 104 0;
#X connect 112 0 111 0;
#X connect 112 1 104 1;
#X connect 114 0 113 0;
#X connect 115 0 114 0;
#X connect 115 0 123 0;
#X connect 115 1 113 1;
#X connect 116 0 113 0;
#X connect 117 0 99 0;
#X connect 118 0 100 0;
#X connect 119 0 118 0;
#X connect 119 1 100 1;
#X connect 120 0 111 0;
#X connect 120 0 118 0;
#X connect 120 1 3 0;
#X connect 121 0 101 1;
#X connect 121 1 118 1;
#X connect 122 0 112 0;
#X connect 122 1 119 0;
#X connect 123 0 116 0;
#X coords 0 0 1 1 61 61 2 32 32;
