#N struct 1281-knob float y1 float x2 float y3 float x4 float dx float
dy float foreground float front float background float thickness;
#N canvas 0 94 1280 930 12;
#X obj 144 304 dac~;
#X obj 96 199 osc~;
#X obj 96 156 mtof;
#X obj 96 131 * 60;
#X obj 131 199 osc~;
#X obj 184 199 osc~;
#X obj 244 199 osc~;
#X obj 144 279 *~ 0.7;
#X obj 131 223 *~ 0.5;
#X obj 184 223 *~ 0.33;
#X obj 244 223 *~ 0.25;
#X obj 132 156 * 2;
#X obj 184 156 * 3;
#X obj 244 156 * 4;
#X obj 272 274 pm/preview~;
#X obj 97 53 knob 60 5 -1;
#X connect 1 0 7 0;
#X connect 2 0 1 0;
#X connect 2 0 11 0;
#X connect 2 0 12 0;
#X connect 2 0 13 0;
#X connect 3 0 2 0;
#X connect 4 0 8 0;
#X connect 5 0 9 0;
#X connect 6 0 10 0;
#X connect 7 0 0 0;
#X connect 7 0 0 1;
#X connect 7 0 14 0;
#X connect 8 0 7 0;
#X connect 9 0 7 0;
#X connect 10 0 7 0;
#X connect 11 0 4 0;
#X connect 12 0 5 0;
#X connect 13 0 6 0;
#X connect 15 0 3 0;
