#N canvas 0 94 1280 930 12;
#X obj 13 57 f;
#X obj 13 82 until;
#X obj 13 107 f;
#X obj 43 107 + 1;
#X obj 43 132 mod;
#X obj 43 207 * 360;
#X obj 43 232 /;
#X obj 43 257 / 360;
#X obj 43 282 * 6.28319;
#X obj 43 307 t f f;
#X obj 43 332 sin;
#X obj 75 332 cos;
#X msg 43 407 add2 \$1;
#X floatatom 31 8 5 0 0 0 - - -;
#X obj 13 12 bng 15 250 50 0 empty empty empty 17 7 0 10 -262144 -1
-1;
#X obj 13 32 t b b;
#X msg 43 57 0, f 1;
#X msg 43 432 0.92 0.38 0.71 0.71 0.38 0.92 -0 1 -0.38 0.92 -0.71 0.71
-0.92 0.38 -1 -0 -0.92 -0.38 -0.71 -0.71 -0.38 -0.92 0 -1 0.38 -0.92
0.71 -0.71 0.92 -0.38 1 0 0.92 0.38;
#X msg 106 407 set;
#X obj 43 157 sel 0;
#X msg 43 182 1, f 1;
#X obj 88 207 - 1;
#X obj 43 382 expr round($f1 * 100) / 100;
#X obj 43 357 scale -1 1 -0.6 0.6;
#X connect 0 0 1 0;
#X connect 1 0 2 0;
#X connect 2 0 3 0;
#X connect 3 0 2 1;
#X connect 3 0 4 0;
#X connect 4 0 19 0;
#X connect 5 0 6 0;
#X connect 6 0 7 0;
#X connect 7 0 8 0;
#X connect 8 0 9 0;
#X connect 9 0 10 0;
#X connect 9 1 11 0;
#X connect 10 0 23 0;
#X connect 11 0 23 0;
#X connect 12 0 17 0;
#X connect 13 0 4 1;
#X connect 13 0 0 1;
#X connect 13 0 21 0;
#X connect 14 0 15 0;
#X connect 15 0 0 0;
#X connect 15 1 16 0;
#X connect 15 1 18 0;
#X connect 16 0 2 1;
#X connect 18 0 17 0;
#X connect 19 0 20 0;
#X connect 19 1 5 0;
#X connect 20 0 5 0;
#X connect 21 0 6 1;
#X connect 22 0 12 0;
#X connect 23 0 22 0;
