#N canvas 0 94 1280 930 12;
#X obj 2 2 inlet;
#X obj 2 77 outlet;
#X obj 113 2 inlet;
#X obj 157 2 inlet;
#X obj 201 2 inlet;
#X obj 245 2 inlet;
#X obj 88 27 f \$1;
#X obj 132 27 f \$2;
#X obj 220 27 f \$4;
#X obj 176 27 f \$3;
#X obj 2 52 expr ($f5 - $f4) * ($f1 - $f2) / ($f3 - $f2) + $f4;
#X obj 46 2 loadbang;
#X connect 0 0 10 0;
#X connect 2 0 6 0;
#X connect 3 0 7 0;
#X connect 4 0 9 0;
#X connect 5 0 8 0;
#X connect 6 0 10 1;
#X connect 7 0 10 2;
#X connect 8 0 10 4;
#X connect 9 0 10 3;
#X connect 10 0 1 0;
#X connect 11 0 6 0;
#X connect 11 0 7 0;
#X connect 11 0 9 0;
#X connect 11 0 8 0;
