#N canvas 0 94 1280 930 12;
#X obj 107 67 f \$1;
#X obj 67 2 loadbang;
#X obj 132 2 inlet minp, f 5;
#X obj 176 2 inlet maxp, f 5;
#X obj 220 2 inlet minv, f 5;
#X obj 264 2 inlet maxv, f 5;
#X obj 195 92 log;
#X obj 239 92 log;
#X obj 151 67 f \$2;
#X obj 195 67 f \$3;
#X obj 239 67 f \$4;
#X obj 2 2 inlet position, f 8;
#X obj 107 117 expr ($f4 - $f3) / ($f2 - $f1);
#X obj 2 142 expr $f4 + $f3 * ($f1 - $f2);
#X obj 2 167 exp;
#X obj 2 192 outlet;
#X obj 67 27 t b b;
#X obj 176 41 t b f;
#X obj 220 41 t b f;
#X obj 264 41 t b f;
#X connect 0 0 12 0;
#X connect 0 0 13 1;
#X connect 1 0 16 0;
#X connect 2 0 0 0;
#X connect 3 0 17 0;
#X connect 4 0 18 0;
#X connect 5 0 19 0;
#X connect 6 0 12 2;
#X connect 6 0 13 3;
#X connect 7 0 12 3;
#X connect 8 0 12 1;
#X connect 9 0 6 0;
#X connect 10 0 7 0;
#X connect 11 0 13 0;
#X connect 12 0 13 2;
#X connect 13 0 14 0;
#X connect 14 0 15 0;
#X connect 16 0 0 0;
#X connect 16 1 10 0;
#X connect 16 1 9 0;
#X connect 16 1 8 0;
#X connect 17 0 0 0;
#X connect 17 1 8 0;
#X connect 18 0 0 0;
#X connect 18 1 9 0;
#X connect 19 0 0 0;
#X connect 19 1 10 0;
